<?xml version="1.0" encoding="UTF-8" standalone="no"?>
<!DOCTYPE svg PUBLIC "-//W3C//DTD SVG 1.1//EN" "http://www.w3.org/Graphics/SVG/1.1/DTD/svg11.dtd">
<!-- 由 Microsoft Visio, SVG Export 生成 image.svg Page-2 -->
<svg xmlns="http://www.w3.org/2000/svg" xmlns:xlink="http://www.w3.org/1999/xlink" xmlns:ev="http://www.w3.org/2001/xml-events"
		xmlns:v="http://schemas.microsoft.com/visio/2003/SVGExtensions/" width="9.05512in" height="6.79134in"
		viewBox="0 0 651.969 488.976" xml:space="preserve" color-interpolation-filters="sRGB" class="st35">
	<v:documentProperties v:langID="2052" v:metric="true" v:viewMarkup="false">
		<v:userDefs>
			<v:ud v:nameU="msvSubprocessMaster" v:prompt="" v:val="VT4(Rectangle)"/>
			<v:ud v:nameU="msvNoAutoConnect" v:val="VT0(1):26"/>
			<v:ud v:nameU="DocShowPicture" v:prompt="" v:val="VT0(1):26"/>
		</v:userDefs>
	</v:documentProperties>

	<style type="text/css">
	<![CDATA[
		.st1 {fill:none;stroke:#000000;stroke-dasharray:1.5,3;stroke-width:1.5}
		.st2 {fill:none;stroke:none;stroke-width:1.5}
		.st3 {fill:#000000;font-family:宋体;font-size:1.33333em;font-weight:bold}
		.st4 {marker-end:url(#mrkr5-16);stroke:#000000;stroke-linecap:round;stroke-linejoin:round;stroke-width:1}
		.st5 {fill:#000000;fill-opacity:1;stroke:#000000;stroke-opacity:1;stroke-width:0.20161290322581}
		.st6 {fill:#ffffff;stroke:#000000;stroke-dasharray:7,5,0.01,5;stroke-width:1}
		.st7 {fill:#ffffff;stroke:#000000;stroke-width:1}
		.st8 {fill:#000000;font-family:宋体;font-size:1.08334em;font-weight:bold}
		.st9 {font-size:0.615376em}
		.st10 {font-size:1em;font-style:italic}
		.st11 {font-size:0.615376em;font-style:italic}
		.st12 {font-size:1em}
		.st13 {visibility:visible}
		.st14 {fill:none;filter:url(#filter_2)}
		.st15 {fill:none;filter:url(#filter_2);stroke:none;stroke-linecap:round;stroke-linejoin:round}
		.st16 {fill:none}
		.st17 {stroke:none;stroke-linecap:round;stroke-linejoin:round;stroke-width:0.75}
		.st18 {fill:url(#grad0-51);stroke:#000000;stroke-linecap:round;stroke-linejoin:round;stroke-width:0.520833}
		.st19 {fill:url(#grad10-61);stroke:#000000;stroke-linecap:round;stroke-linejoin:round;stroke-width:0.520833}
		.st20 {stroke:#7c7c7c;stroke-linecap:round;stroke-linejoin:round;stroke-width:0.520833}
		.st21 {fill:none;stroke:#000000;stroke-width:1}
		.st22 {fill:#5b9bd5;filter:url(#filter_2);font-family:Times New Roman;font-size:1.00001em;font-style:italic;font-weight:bold;opacity:0.219608}
		.st23 {fill:#000000;font-family:Times New Roman;font-size:1.00001em;font-style:italic;font-weight:bold}
		.st24 {fill:#ffffff}
		.st25 {stroke:#000000;stroke-width:1}
		.st26 {fill:#000000;font-family:Times New Roman;font-size:1.08334em;font-weight:bold}
		.st27 {font-family:宋体;font-size:1em}
		.st28 {fill:none;stroke:none;stroke-width:1}
		.st29 {fill:#000000;font-family:宋体;font-size:0.833336em;font-weight:bold}
		.st30 {fill:#000000;stroke:#000000;stroke-width:0.25}
		.st31 {fill:#000000;font-family:宋体;font-size:0.75em;font-weight:bold}
		.st32 {fill:#5b9bd5;filter:url(#filter_2);font-family:宋体;font-size:1.00001em;font-weight:bold;opacity:0.219608}
		.st33 {font-family:Times New Roman;font-size:1em}
		.st34 {fill:#000000;font-family:宋体;font-size:1.00001em;font-weight:bold}
		.st35 {fill:none;fill-rule:evenodd;font-size:12px;overflow:visible;stroke-linecap:square;stroke-miterlimit:3}
	]]>
	</style>

	<defs id="Patterns_And_Gradients">
		<linearGradient id="grad0-51" x1="0" y1="0" x2="1" y2="0" gradientTransform="rotate(90 0.5 0.5)">
			<stop offset="0" stop-color="#ffffff" stop-opacity="1"/>
			<stop offset="1" stop-color="#ffffff" stop-opacity="1"/>
		</linearGradient>
		<pattern id="grad10-61" x="0" y="0" width="1" height="1" patternContentUnits="objectBoundingBox">
			<path d="M 0.5 0.5 L 0 0 L 0 1 z" style="fill:url(#grad0-62)"/>
			<path d="M 0.5 0.5 L 1 0 L 1 1 z" style="fill:url(#grad0-63)"/>
			<path d="M 0.5 0.5 L 0 0 L 1 0 z" style="fill:url(#grad0-64)"/>
			<path d="M 0.5 0.5 L 0 1 L 1 1 z" style="fill:url(#grad0-51)"/>
		</pattern>
		<linearGradient id="grad0-62" x1="0" y1="0" x2="1" y2="0" gradientTransform="rotate(180 0.5 0.5)">
			<stop offset="0" stop-color="#ffffff" stop-opacity="1"/>
			<stop offset="1" stop-color="#ffffff" stop-opacity="1"/>
		</linearGradient>
		<linearGradient id="grad0-63" x1="0" y1="0" x2="1" y2="0" gradientTransform="rotate(360 0.5 0.5)">
			<stop offset="0" stop-color="#ffffff" stop-opacity="1"/>
			<stop offset="1" stop-color="#ffffff" stop-opacity="1"/>
		</linearGradient>
		<linearGradient id="grad0-64" x1="0" y1="0" x2="1" y2="0" gradientTransform="rotate(270 0.5 0.5)">
			<stop offset="0" stop-color="#ffffff" stop-opacity="1"/>
			<stop offset="1" stop-color="#ffffff" stop-opacity="1"/>
		</linearGradient>
	</defs>
	<defs id="Markers">
		<g id="lend5">
			<path d="M 2 1 L 0 0 L 1.98117 -0.993387 C 1.67173 -0.364515 1.67301 0.372641 1.98465 1.00043 " style="stroke:none"/>
		</g>
		<marker id="mrkr5-16" class="st5" v:arrowType="5" v:arrowSize="4" v:setback="8.68" refX="-8.68" orient="auto"
				markerUnits="strokeWidth" overflow="visible">
			<use xlink:href="#lend5" transform="scale(-4.96,-4.96) "/>
		</marker>
	</defs>
	<defs id="Filters">
		<filter id="filter_2">
			<feGaussianBlur stdDeviation="2"/>
		</filter>
	</defs>
	<g v:mID="4" v:index="2" v:groupContext="foregroundPage">
		<v:userDefs>
			<v:ud v:nameU="msvThemeOrder" v:val="VT0(0):26"/>
		</v:userDefs>
		<title>页-2</title>
		<v:pageProperties v:drawingScale="0.0393701" v:pageScale="0.0393701" v:drawingUnits="24" v:shadowOffsetX="8.50394"
				v:shadowOffsetY="-8.50394"/>
		<v:layer v:name="连接线" v:index="0"/>
		<g id="shape57-1" v:mID="57" v:groupContext="shape" transform="translate(3.36535,-173.48)">
			<title>圆角矩形</title>
			<v:userDefs>
				<v:ud v:nameU="CTypeTopLeftSnip" v:prompt="" v:val="VT0(0):5"/>
				<v:ud v:nameU="CTypeTopRightSnip" v:prompt="" v:val="VT0(0):5"/>
				<v:ud v:nameU="CTypeBotLeftSnip" v:prompt="" v:val="VT0(0):5"/>
				<v:ud v:nameU="CTypeBotRightSnip" v:prompt="" v:val="VT0(0):5"/>
				<v:ud v:nameU="CornerLockHoriz" v:prompt="" v:val="VT0(1):5"/>
				<v:ud v:nameU="CornerLockVert" v:prompt="" v:val="VT0(1):5"/>
				<v:ud v:nameU="CornerLockDiag" v:prompt="" v:val="VT0(0):5"/>
				<v:ud v:nameU="TopLeftOffset" v:prompt="" v:val="VT0(0.15748031496063):24"/>
				<v:ud v:nameU="TopRightOffset" v:prompt="" v:val="VT0(0.15748031496063):24"/>
				<v:ud v:nameU="BotLeftOffset" v:prompt="" v:val="VT0(0.15748031496063):24"/>
				<v:ud v:nameU="BotRightOffset" v:prompt="" v:val="VT0(0.15748031496063):24"/>
				<v:ud v:nameU="visVersion" v:prompt="" v:val="VT0(15):26"/>
				<v:ud v:nameU="TopLeftOffset" v:prompt="" v:val="VT0(0.019685039370078):1"/>
				<v:ud v:nameU="TopRightOffset" v:prompt="" v:val="VT0(0.019685039370078):1"/>
				<v:ud v:nameU="BotLeftOffset" v:prompt="" v:val="VT0(0.019685039370078):1"/>
				<v:ud v:nameU="BotRightOffset" v:prompt="" v:val="VT0(0.019685039370078):1"/>
			</v:userDefs>
			<path d="M1.42 488.98 L301.36 488.98 A1.4173 1.4173 -180 0 0 302.78 487.56 L302.78 178.36 A1.4173 1.4173 -180 0 0 301.36
						 176.94 L1.42 176.94 A1.4173 1.4173 -180 0 0 -0 178.36 L0 487.56 A1.4173 1.4173 -180 0 0 1.42 488.98 Z"
					class="st1"/>
		</g>
		<g id="shape58-3" v:mID="58" v:groupContext="shape" transform="translate(342.106,-173.48)">
			<title>圆角矩形.5</title>
			<v:userDefs>
				<v:ud v:nameU="CTypeTopLeftSnip" v:prompt="" v:val="VT0(0):5"/>
				<v:ud v:nameU="CTypeTopRightSnip" v:prompt="" v:val="VT0(0):5"/>
				<v:ud v:nameU="CTypeBotLeftSnip" v:prompt="" v:val="VT0(0):5"/>
				<v:ud v:nameU="CTypeBotRightSnip" v:prompt="" v:val="VT0(0):5"/>
				<v:ud v:nameU="CornerLockHoriz" v:prompt="" v:val="VT0(1):5"/>
				<v:ud v:nameU="CornerLockVert" v:prompt="" v:val="VT0(1):5"/>
				<v:ud v:nameU="CornerLockDiag" v:prompt="" v:val="VT0(0):5"/>
				<v:ud v:nameU="TopLeftOffset" v:prompt="" v:val="VT0(0.15748031496063):24"/>
				<v:ud v:nameU="TopRightOffset" v:prompt="" v:val="VT0(0.15748031496063):24"/>
				<v:ud v:nameU="BotLeftOffset" v:prompt="" v:val="VT0(0.15748031496063):24"/>
				<v:ud v:nameU="BotRightOffset" v:prompt="" v:val="VT0(0.15748031496063):24"/>
				<v:ud v:nameU="visVersion" v:prompt="" v:val="VT0(15):26"/>
				<v:ud v:nameU="TopLeftOffset" v:prompt="" v:val="VT0(0.019685039370078):1"/>
				<v:ud v:nameU="TopRightOffset" v:prompt="" v:val="VT0(0.019685039370078):1"/>
				<v:ud v:nameU="BotLeftOffset" v:prompt="" v:val="VT0(0.019685039370078):1"/>
				<v:ud v:nameU="BotRightOffset" v:prompt="" v:val="VT0(0.019685039370078):1"/>
			</v:userDefs>
			<path d="M1.42 488.98 L301.36 488.98 A1.4173 1.4173 -180 0 0 302.78 487.56 L302.78 178.36 A1.4173 1.4173 -180 0 0 301.36
						 176.94 L1.42 176.94 A1.4173 1.4173 -180 0 0 -0 178.36 L0 487.56 A1.4173 1.4173 -180 0 0 1.42 488.98 Z"
					class="st1"/>
		</g>
		<g id="shape61-5" v:mID="61" v:groupContext="shape" transform="translate(3.36535,-451.498)">
			<title>框</title>
			<desc>股票三因子</desc>
			<v:userDefs>
				<v:ud v:nameU="visVersion" v:val="VT0(15):26"/>
			</v:userDefs>
			<v:textBlock v:margins="rect(4,4,4,4)" v:tabSpace="42.5197"/>
			<v:textRect cx="151.388" cy="471.969" width="302.78" height="34.0157"/>
			<rect x="0" y="454.961" width="302.776" height="34.0157" class="st2"/>
			<text x="111.23" y="476.77" class="st3" v:langID="2052"><v:paragraph v:horizAlign="1"/><v:tabList/>股票三因子</text>		</g>
		<g id="shape62-8" v:mID="62" v:groupContext="shape" transform="translate(342.106,-451.498)">
			<title>框.18</title>
			<desc>被解释的收益率</desc>
			<v:userDefs>
				<v:ud v:nameU="visVersion" v:val="VT0(15):26"/>
			</v:userDefs>
			<v:textBlock v:margins="rect(4,4,4,4)" v:tabSpace="42.5197"/>
			<v:textRect cx="151.388" cy="471.969" width="302.78" height="34.0157"/>
			<rect x="0" y="454.961" width="302.776" height="34.0157" class="st2"/>
			<text x="95.17" y="476.77" class="st3" v:langID="2052"><v:paragraph v:horizAlign="1"/><v:tabList/>被解释的收益率</text>		</g>
		<g id="shape64-11" v:mID="64" v:groupContext="shape" v:layerMember="0" transform="translate(154.754,-396.85)">
			<title>动态连接线</title>
			<path d="M0 488.98 L0 499.61 L-73.02 499.61 L-73.02 505.02" class="st4"/>
		</g>
		<g id="shape65-17" v:mID="65" v:groupContext="shape" v:layerMember="0" transform="translate(147.667,-343.701)">
			<title>动态连接线.37</title>
			<path d="M7.09 488.98 L7.09 522.45" class="st4"/>
		</g>
		<g id="shape67-22" v:mID="67" v:groupContext="shape" transform="translate(24.5724,-248.376)">
			<title>框.67</title>
			<v:userDefs>
				<v:ud v:nameU="visVersion" v:val="VT0(15):26"/>
			</v:userDefs>
			<path d="M0 488.98 L260.36 488.98 L260.36 435.81 L0 435.81 L0 488.98 Z" class="st6"/>
		</g>
		<g id="shape68-24" v:mID="68" v:groupContext="shape" transform="translate(24.5724,-321.732)">
			<title>框.21</title>
			<v:userDefs>
				<v:ud v:nameU="visVersion" v:val="VT0(15):26"/>
			</v:userDefs>
			<rect x="0" y="438.581" width="114.325" height="50.3953" class="st7"/>
		</g>
		<g id="group69-26" transform="translate(24.5724,-396.85)" v:mID="69" v:groupContext="group">
			<title>工作表.69</title>
			<g id="shape70-27" v:mID="70" v:groupContext="shape">
				<title>框.21</title>
				<desc>采用 t 年4月底前披露的 t-1 年的市值 和账面市值比数据</desc>
				<v:userDefs>
					<v:ud v:nameU="visVersion" v:val="VT0(15):26"/>
				</v:userDefs>
				<v:textBlock v:margins="rect(4,4,4,4)" v:tabSpace="42.5197"/>
				<v:textRect cx="130.181" cy="465.905" width="260.37" height="46.1433"/>
				<rect x="0" y="442.833" width="260.362" height="46.1433" class="st7"/>
				<text x="20.91" y="461.03" class="st8" v:langID="2052"><v:paragraph v:spLine="-1.5" v:horizAlign="1"/><v:tabList/>采用<tspan
							class="st9"> </tspan><tspan class="st10">t</tspan><tspan class="st11"> </tspan>年4月底前披露的<tspan
							class="st9"> </tspan><tspan class="st10">t</tspan><tspan class="st10">-</tspan><tspan class="st10">1</tspan><tspan
							class="st9"> </tspan>年的市值<v:newlineChar/><tspan x="77.98" dy="1.5em" class="st12">和账面市值比数据</tspan></text>			</g>
		</g>
		<g id="group71-39" transform="translate(24.5724,-338.112)" v:mID="71" v:groupContext="group">
			<v:userDefs>
				<v:ud v:nameU="SkinColor" v:prompt="" v:val="VT5(#da8c36)"/>
				<v:ud v:nameU="visVersion" v:prompt="" v:val="VT0(15):26"/>
			</v:userDefs>
			<title>协议</title>
			<desc>S</desc>
			<g id="shape72-40" v:mID="72" v:groupContext="shape" transform="translate(9.55599,-3.50787)">
				<title>工作表.72</title>
				<g id="shadow72-41" v:groupContext="shadow" v:shadowOffsetX="0.3456" v:shadowOffsetY="-1.9728" v:shadowType="1"
						transform="matrix(1,0,0,1,0.3456,1.9728)" class="st13">
					<path d="M0 476.83 L3.57 478.65 L16.7 485.35 L38.05 474.33 L33.26 471.84 L34.38 468.64 L21.55 461.98 L0.16 473.03
								 L3.77 474.89 L0 476.83 ZM0.16 480.44 L16.7 488.98 L38.05 477.96 L34.62 476.17 L16.7 485.35 L3.57
								 478.66 L0.16 480.44 ZM3.57 478.66 L3.57 478.65 L3.57 478.66 Z" class="st14"/>
					<path d="M0 476.83 L3.57 478.65 L16.7 485.35 L38.05 474.33 L33.26 471.84 L34.38 468.64 L21.55 461.98 L0.16 473.03
								 L3.77 474.89 L0 476.83M0.16 480.44 L16.7 488.98 L38.05 477.96 L34.62 476.17 L16.7 485.35 L3.57 478.66
								 L0.16 480.44M3.57 478.66 L3.57 478.65" class="st15"/>
				</g>
				<path d="M0 476.83 L3.57 478.65 L16.7 485.35 L38.05 474.33 L33.26 471.84 L34.38 468.64 L21.55 461.98 L0.16 473.03
							 L3.77 474.89 L0 476.83 ZM0.16 480.44 L16.7 488.98 L38.05 477.96 L34.62 476.17 L16.7 485.35 L3.57 478.66
							 L0.16 480.44 ZM3.57 478.66 L3.57 478.65 L3.57 478.66 Z" class="st16"/>
				<path d="M0 476.83 L3.57 478.65 L16.7 485.35 L38.05 474.33 L33.26 471.84 L34.38 468.64 L21.55 461.98 L0.16 473.03
							 L3.77 474.89 L0 476.83M0.16 480.44 L16.7 488.98 L38.05 477.96 L34.62 476.17 L16.7 485.35 L3.57 478.66
							 L0.16 480.44M3.57 478.66 L3.57 478.65" class="st17"/>
			</g>
			<g id="shape73-48" v:mID="73" v:groupContext="shape" transform="translate(9.55599,-3.50831)">
				<title>工作表.73</title>
				<path d="M0.16 480.44 L3.58 478.65 L16.7 485.35 L34.62 476.17 L38.05 477.96 L16.7 488.98 L0.16 480.44 ZM0 476.83
							 L21.55 465.75 L38.05 474.33 L16.7 485.35 L0 476.83 Z" class="st18"/>
			</g>
			<g id="shape74-52" v:mID="74" v:groupContext="shape" transform="translate(9.72006,-10.9119)">
				<title>工作表.74</title>
				<path d="M34.21 476.04 L21.39 469.38 L0 480.43 L16.54 488.98 L32.59 480.69 L34.21 476.04 Z" class="st18"/>
			</g>
			<g id="shape75-55" v:mID="75" v:groupContext="shape" transform="translate(37.9081,-18.9113)">
				<title>工作表.75</title>
				<path d="M0.7 486.68 L4.26 488.6 L3.5 488.98 L0 487.15 L0.7 486.68 Z" class="st16"/>
				<path d="M0.7 486.68 L4.26 488.6 L3.5 488.98 L0 487.15" class="st17"/>
			</g>
			<g id="shape76-58" v:mID="76" v:groupContext="shape" transform="translate(38.6092,-19.1963)">
				<title>工作表.76</title>
				<path d="M3.71 488.98 L0 486.96 L5.32 484.33 L3.71 488.98 Z" class="st19"/>
			</g>
			<g id="shape77-65" v:mID="77" v:groupContext="shape" transform="translate(16.2687,-14.7157)">
				<title>工作表.77</title>
				<path d="M11.4 488.98 L0 483.08 L11.4 488.98 ZM14.45 487.51 L2.95 481.56 L14.45 487.51 ZM17.56 485.83 L6.12 479.91
							 L17.56 485.83 ZM20.7 484.2 L9.26 478.28 L20.7 484.2 ZM19.93 480.84 L12.01 476.74 L19.93 480.84 Z"
						class="st16"/>
				<path d="M11.4 488.98 L0 483.08M14.45 487.51 L2.95 481.56M17.56 485.83 L6.12 479.91M20.7 484.2 L9.26 478.28M19.93
							 480.84 L12.01 476.74" class="st20"/>
			</g>
			<g id="shape78-68" v:mID="78" v:groupContext="shape" transform="translate(9.55599,-3.50831)">
				<title>工作表.78</title>
				<path d="M34.62 476.17 L38.05 474.33 L33.27 471.85 L34.38 468.64 L21.55 461.98 L0.16 473.03 L3.69 474.88 L0 476.83
							 L3.58 478.65 L0.16 480.44 L16.7 488.98 L38.05 477.96 L34.62 476.17 Z" class="st21"/>
			</g>
			<g id="shape71-70" v:mID="71" v:groupContext="groupContent">
				<v:textBlock v:margins="rect(0,0,0,0)" v:tabSpace="42.5197"/>
				<v:textRect cx="28.5813" cy="496.178" width="9.68" height="14.4037"/>
				<g id="shadow71-71" v:groupContext="shadow" v:shadowOffsetX="0.345598" v:shadowOffsetY="-1.97279" v:shadowType="1"
						transform="matrix(1,0,0,1,0.345598,1.97279)" class="st13">
					<text x="25.24" y="499.78" class="st22" v:langID="2052"><v:paragraph v:horizAlign="1"/><v:tabList/>S</text>				</g>
				<text x="25.24" y="499.78" class="st23" v:langID="2052"><v:paragraph v:horizAlign="1"/><v:tabList/>S</text>			</g>
		</g>
		<g id="group79-75" transform="translate(81.735,-338.112)" v:mID="79" v:groupContext="group">
			<v:userDefs>
				<v:ud v:nameU="SkinColor" v:prompt="" v:val="VT5(#da8c36)"/>
				<v:ud v:nameU="visVersion" v:prompt="" v:val="VT0(15):26"/>
			</v:userDefs>
			<title>协议.67</title>
			<desc>B</desc>
			<g id="shape80-76" v:mID="80" v:groupContext="shape" transform="translate(9.55599,-3.50787)">
				<title>工作表.80</title>
				<g id="shadow80-77" v:groupContext="shadow" v:shadowOffsetX="0.3456" v:shadowOffsetY="-1.9728" v:shadowType="1"
						transform="matrix(1,0,0,1,0.3456,1.9728)" class="st13">
					<path d="M0 476.83 L3.57 478.65 L16.7 485.35 L38.05 474.33 L33.26 471.84 L34.38 468.64 L21.55 461.98 L0.16 473.03
								 L3.77 474.89 L0 476.83 ZM0.16 480.44 L16.7 488.98 L38.05 477.96 L34.62 476.17 L16.7 485.35 L3.57
								 478.66 L0.16 480.44 ZM3.57 478.66 L3.57 478.65 L3.57 478.66 Z" class="st14"/>
					<path d="M0 476.83 L3.57 478.65 L16.7 485.35 L38.05 474.33 L33.26 471.84 L34.38 468.64 L21.55 461.98 L0.16 473.03
								 L3.77 474.89 L0 476.83M0.16 480.44 L16.7 488.98 L38.05 477.96 L34.62 476.17 L16.7 485.35 L3.57 478.66
								 L0.16 480.44M3.57 478.66 L3.57 478.65" class="st15"/>
				</g>
				<path d="M0 476.83 L3.57 478.65 L16.7 485.35 L38.05 474.33 L33.26 471.84 L34.38 468.64 L21.55 461.98 L0.16 473.03
							 L3.77 474.89 L0 476.83 ZM0.16 480.44 L16.7 488.98 L38.05 477.96 L34.62 476.17 L16.7 485.35 L3.57 478.66
							 L0.16 480.44 ZM3.57 478.66 L3.57 478.65 L3.57 478.66 Z" class="st16"/>
				<path d="M0 476.83 L3.57 478.65 L16.7 485.35 L38.05 474.33 L33.26 471.84 L34.38 468.64 L21.55 461.98 L0.16 473.03
							 L3.77 474.89 L0 476.83M0.16 480.44 L16.7 488.98 L38.05 477.96 L34.62 476.17 L16.7 485.35 L3.57 478.66
							 L0.16 480.44M3.57 478.66 L3.57 478.65" class="st17"/>
			</g>
			<g id="shape81-84" v:mID="81" v:groupContext="shape" transform="translate(9.55599,-3.50831)">
				<title>工作表.81</title>
				<path d="M0.16 480.44 L3.58 478.65 L16.7 485.35 L34.62 476.17 L38.05 477.96 L16.7 488.98 L0.16 480.44 ZM0 476.83
							 L21.55 465.75 L38.05 474.33 L16.7 485.35 L0 476.83 Z" class="st18"/>
			</g>
			<g id="shape82-87" v:mID="82" v:groupContext="shape" transform="translate(9.72006,-10.9119)">
				<title>工作表.82</title>
				<path d="M34.21 476.04 L21.39 469.38 L0 480.43 L16.54 488.98 L32.59 480.69 L34.21 476.04 Z" class="st18"/>
			</g>
			<g id="shape83-90" v:mID="83" v:groupContext="shape" transform="translate(37.9081,-18.9113)">
				<title>工作表.83</title>
				<path d="M0.7 486.68 L4.26 488.6 L3.5 488.98 L0 487.15 L0.7 486.68 Z" class="st16"/>
				<path d="M0.7 486.68 L4.26 488.6 L3.5 488.98 L0 487.15" class="st17"/>
			</g>
			<g id="shape84-93" v:mID="84" v:groupContext="shape" transform="translate(38.6092,-19.1963)">
				<title>工作表.84</title>
				<path d="M3.71 488.98 L0 486.96 L5.32 484.33 L3.71 488.98 Z" class="st19"/>
			</g>
			<g id="shape85-96" v:mID="85" v:groupContext="shape" transform="translate(16.2687,-14.7157)">
				<title>工作表.85</title>
				<path d="M11.4 488.98 L0 483.08 L11.4 488.98 ZM14.45 487.51 L2.95 481.56 L14.45 487.51 ZM17.56 485.83 L6.12 479.91
							 L17.56 485.83 ZM20.7 484.2 L9.26 478.28 L20.7 484.2 ZM19.93 480.84 L12.01 476.74 L19.93 480.84 Z"
						class="st16"/>
				<path d="M11.4 488.98 L0 483.08M14.45 487.51 L2.95 481.56M17.56 485.83 L6.12 479.91M20.7 484.2 L9.26 478.28M19.93
							 480.84 L12.01 476.74" class="st20"/>
			</g>
			<g id="shape86-99" v:mID="86" v:groupContext="shape" transform="translate(9.55599,-3.50831)">
				<title>工作表.86</title>
				<path d="M34.62 476.17 L38.05 474.33 L33.27 471.85 L34.38 468.64 L21.55 461.98 L0.16 473.03 L3.69 474.88 L0 476.83
							 L3.58 478.65 L0.16 480.44 L16.7 488.98 L38.05 477.96 L34.62 476.17 Z" class="st21"/>
			</g>
			<g id="shape79-101" v:mID="79" v:groupContext="groupContent">
				<v:textBlock v:margins="rect(0,0,0,0)" v:tabSpace="42.5197"/>
				<v:textRect cx="28.5813" cy="496.178" width="11.01" height="14.4037"/>
				<g id="shadow79-102" v:groupContext="shadow" v:shadowOffsetX="0.345598" v:shadowOffsetY="-1.97279" v:shadowType="1"
						transform="matrix(1,0,0,1,0.345598,1.97279)" class="st13">
					<text x="24.58" y="499.78" class="st22" v:langID="2052"><v:paragraph v:horizAlign="1"/><v:tabList/>B</text>				</g>
				<text x="24.58" y="499.78" class="st23" v:langID="2052"><v:paragraph v:horizAlign="1"/><v:tabList/>B</text>			</g>
		</g>
		<g id="group87-106" transform="translate(24.5724,-266.457)" v:mID="87" v:groupContext="group">
			<v:userDefs>
				<v:ud v:nameU="SkinColor" v:prompt="" v:val="VT5(#da8c36)"/>
				<v:ud v:nameU="visVersion" v:prompt="" v:val="VT0(15):26"/>
			</v:userDefs>
			<title>协议.75</title>
			<desc>S/L</desc>
			<g id="shape88-107" v:mID="88" v:groupContext="shape" transform="translate(6.78749,-3.50787)">
				<title>工作表.88</title>
				<g id="shadow88-108" v:groupContext="shadow" v:shadowOffsetX="0.3456" v:shadowOffsetY="-1.9728" v:shadowType="1"
						transform="matrix(1,0,0,1,0.3456,1.9728)" class="st13">
					<path d="M0 476.83 L2.53 478.65 L11.86 485.35 L27.03 474.33 L23.63 471.84 L24.42 468.64 L15.31 461.98 L0.12 473.03
								 L2.68 474.89 L0 476.83 ZM0.12 480.44 L11.86 488.98 L27.03 477.96 L24.59 476.17 L11.86 485.35 L2.54
								 478.66 L0.12 480.44 ZM2.54 478.66 L2.53 478.65 L2.54 478.66 Z" class="st14"/>
					<path d="M0 476.83 L2.53 478.65 L11.86 485.35 L27.03 474.33 L23.63 471.84 L24.42 468.64 L15.31 461.98 L0.12 473.03
								 L2.68 474.89 L0 476.83M0.12 480.44 L11.86 488.98 L27.03 477.96 L24.59 476.17 L11.86 485.35 L2.54
								 478.66 L0.12 480.44M2.54 478.66 L2.53 478.65" class="st15"/>
				</g>
				<path d="M0 476.83 L2.53 478.65 L11.86 485.35 L27.03 474.33 L23.63 471.84 L24.42 468.64 L15.31 461.98 L0.12 473.03
							 L2.68 474.89 L0 476.83 ZM0.12 480.44 L11.86 488.98 L27.03 477.96 L24.59 476.17 L11.86 485.35 L2.54 478.66
							 L0.12 480.44 ZM2.54 478.66 L2.53 478.65 L2.54 478.66 Z" class="st16"/>
				<path d="M0 476.83 L2.53 478.65 L11.86 485.35 L27.03 474.33 L23.63 471.84 L24.42 468.64 L15.31 461.98 L0.12 473.03
							 L2.68 474.89 L0 476.83M0.12 480.44 L11.86 488.98 L27.03 477.96 L24.59 476.17 L11.86 485.35 L2.54 478.66
							 L0.12 480.44M2.54 478.66 L2.53 478.65" class="st17"/>
			</g>
			<g id="shape89-115" v:mID="89" v:groupContext="shape" transform="translate(6.78749,-3.50831)">
				<title>工作表.89</title>
				<path d="M0.12 480.44 L2.54 478.65 L11.86 485.35 L24.59 476.17 L27.03 477.96 L11.86 488.98 L0.12 480.44 ZM0 476.83
							 L15.31 465.75 L27.03 474.33 L11.86 485.35 L0 476.83 Z" class="st18"/>
			</g>
			<g id="shape90-118" v:mID="90" v:groupContext="shape" transform="translate(6.90403,-10.9119)">
				<title>工作表.90</title>
				<path d="M24.3 476.04 L15.19 469.38 L0 480.43 L11.75 488.98 L23.15 480.69 L24.3 476.04 Z" class="st18"/>
			</g>
			<g id="shape91-121" v:mID="91" v:groupContext="shape" transform="translate(26.9256,-18.9113)">
				<title>工作表.91</title>
				<path d="M0.5 486.68 L3.03 488.6 L2.48 488.98 L0 487.15 L0.5 486.68 Z" class="st16"/>
				<path d="M0.5 486.68 L3.03 488.6 L2.48 488.98 L0 487.15" class="st17"/>
			</g>
			<g id="shape92-124" v:mID="92" v:groupContext="shape" transform="translate(27.4236,-19.1963)">
				<title>工作表.92</title>
				<path d="M2.63 488.98 L0 486.96 L3.78 484.33 L2.63 488.98 Z" class="st19"/>
			</g>
			<g id="shape93-127" v:mID="93" v:groupContext="shape" transform="translate(11.5554,-14.7157)">
				<title>工作表.93</title>
				<path d="M8.1 488.98 L0 483.08 L8.1 488.98 ZM10.26 487.51 L2.1 481.56 L10.26 487.51 ZM12.47 485.83 L4.35 479.91 L12.47
							 485.83 ZM14.7 484.2 L6.58 478.28 L14.7 484.2 ZM14.16 480.84 L8.53 476.74 L14.16 480.84 Z" class="st16"/>
				<path d="M8.1 488.98 L0 483.08M10.26 487.51 L2.1 481.56M12.47 485.83 L4.35 479.91M14.7 484.2 L6.58 478.28M14.16 480.84
							 L8.53 476.74" class="st20"/>
			</g>
			<g id="shape94-130" v:mID="94" v:groupContext="shape" transform="translate(6.78749,-3.50831)">
				<title>工作表.94</title>
				<path d="M24.59 476.17 L27.03 474.33 L23.63 471.85 L24.42 468.64 L15.31 461.98 L0.12 473.03 L2.62 474.88 L0 476.83
							 L2.54 478.65 L0.12 480.44 L11.86 488.98 L27.03 477.96 L24.59 476.17 Z" class="st21"/>
			</g>
			<g id="shape87-132" v:mID="87" v:groupContext="groupContent">
				<v:textBlock v:margins="rect(0,0,0,0)" v:tabSpace="42.5197"/>
				<v:textRect cx="20.3009" cy="496.178" width="20.35" height="14.4037"/>
				<g id="shadow87-133" v:groupContext="shadow" v:shadowOffsetX="0.345598" v:shadowOffsetY="-1.97279" v:shadowType="1"
						transform="matrix(1,0,0,1,0.345598,1.97279)" class="st13">
					<text x="11.63" y="499.78" class="st22" v:langID="2052"><v:paragraph v:horizAlign="1"/><v:tabList/>S/L</text>				</g>
				<text x="11.63" y="499.78" class="st23" v:langID="2052"><v:paragraph v:horizAlign="1"/><v:tabList/>S/L</text>			</g>
		</g>
		<g id="group95-137" transform="translate(68.9791,-266.457)" v:mID="95" v:groupContext="group">
			<v:userDefs>
				<v:ud v:nameU="SkinColor" v:prompt="" v:val="VT5(#da8c36)"/>
				<v:ud v:nameU="visVersion" v:prompt="" v:val="VT0(15):26"/>
			</v:userDefs>
			<title>协议.83</title>
			<desc>S/M</desc>
			<g id="shape96-138" v:mID="96" v:groupContext="shape" transform="translate(6.78749,-3.50787)">
				<title>工作表.96</title>
				<g id="shadow96-139" v:groupContext="shadow" v:shadowOffsetX="0.3456" v:shadowOffsetY="-1.9728" v:shadowType="1"
						transform="matrix(1,0,0,1,0.3456,1.9728)" class="st13">
					<path d="M0 476.83 L2.53 478.65 L11.86 485.35 L27.03 474.33 L23.63 471.84 L24.42 468.64 L15.31 461.98 L0.12 473.03
								 L2.68 474.89 L0 476.83 ZM0.12 480.44 L11.86 488.98 L27.03 477.96 L24.59 476.17 L11.86 485.35 L2.54
								 478.66 L0.12 480.44 ZM2.54 478.66 L2.53 478.65 L2.54 478.66 Z" class="st14"/>
					<path d="M0 476.83 L2.53 478.65 L11.86 485.35 L27.03 474.33 L23.63 471.84 L24.42 468.64 L15.31 461.98 L0.12 473.03
								 L2.68 474.89 L0 476.83M0.12 480.44 L11.86 488.98 L27.03 477.96 L24.59 476.17 L11.86 485.35 L2.54
								 478.66 L0.12 480.44M2.54 478.66 L2.53 478.65" class="st15"/>
				</g>
				<path d="M0 476.83 L2.53 478.65 L11.86 485.35 L27.03 474.33 L23.63 471.84 L24.42 468.64 L15.31 461.98 L0.12 473.03
							 L2.68 474.89 L0 476.83 ZM0.12 480.44 L11.86 488.98 L27.03 477.96 L24.59 476.17 L11.86 485.35 L2.54 478.66
							 L0.12 480.44 ZM2.54 478.66 L2.53 478.65 L2.54 478.66 Z" class="st16"/>
				<path d="M0 476.83 L2.53 478.65 L11.86 485.35 L27.03 474.33 L23.63 471.84 L24.42 468.64 L15.31 461.98 L0.12 473.03
							 L2.68 474.89 L0 476.83M0.12 480.44 L11.86 488.98 L27.03 477.96 L24.59 476.17 L11.86 485.35 L2.54 478.66
							 L0.12 480.44M2.54 478.66 L2.53 478.65" class="st17"/>
			</g>
			<g id="shape97-146" v:mID="97" v:groupContext="shape" transform="translate(6.78749,-3.50831)">
				<title>工作表.97</title>
				<path d="M0.12 480.44 L2.54 478.65 L11.86 485.35 L24.59 476.17 L27.03 477.96 L11.86 488.98 L0.12 480.44 ZM0 476.83
							 L15.31 465.75 L27.03 474.33 L11.86 485.35 L0 476.83 Z" class="st18"/>
			</g>
			<g id="shape98-149" v:mID="98" v:groupContext="shape" transform="translate(6.90403,-10.9119)">
				<title>工作表.98</title>
				<path d="M24.3 476.04 L15.19 469.38 L0 480.43 L11.75 488.98 L23.15 480.69 L24.3 476.04 Z" class="st18"/>
			</g>
			<g id="shape99-152" v:mID="99" v:groupContext="shape" transform="translate(26.9256,-18.9113)">
				<title>工作表.99</title>
				<path d="M0.5 486.68 L3.03 488.6 L2.48 488.98 L0 487.15 L0.5 486.68 Z" class="st16"/>
				<path d="M0.5 486.68 L3.03 488.6 L2.48 488.98 L0 487.15" class="st17"/>
			</g>
			<g id="shape100-155" v:mID="100" v:groupContext="shape" transform="translate(27.4236,-19.1963)">
				<title>工作表.100</title>
				<path d="M2.63 488.98 L0 486.96 L3.78 484.33 L2.63 488.98 Z" class="st19"/>
			</g>
			<g id="shape101-158" v:mID="101" v:groupContext="shape" transform="translate(11.5554,-14.7157)">
				<title>工作表.101</title>
				<path d="M8.1 488.98 L0 483.08 L8.1 488.98 ZM10.26 487.51 L2.1 481.56 L10.26 487.51 ZM12.47 485.83 L4.35 479.91 L12.47
							 485.83 ZM14.7 484.2 L6.58 478.28 L14.7 484.2 ZM14.16 480.84 L8.53 476.74 L14.16 480.84 Z" class="st16"/>
				<path d="M8.1 488.98 L0 483.08M10.26 487.51 L2.1 481.56M12.47 485.83 L4.35 479.91M14.7 484.2 L6.58 478.28M14.16 480.84
							 L8.53 476.74" class="st20"/>
			</g>
			<g id="shape102-161" v:mID="102" v:groupContext="shape" transform="translate(6.78749,-3.50831)">
				<title>工作表.102</title>
				<path d="M24.59 476.17 L27.03 474.33 L23.63 471.85 L24.42 468.64 L15.31 461.98 L0.12 473.03 L2.62 474.88 L0 476.83
							 L2.54 478.65 L0.12 480.44 L11.86 488.98 L27.03 477.96 L24.59 476.17 Z" class="st21"/>
			</g>
			<g id="shape95-163" v:mID="95" v:groupContext="groupContent">
				<v:textBlock v:margins="rect(0,0,0,0)" v:tabSpace="42.5197"/>
				<v:textRect cx="20.3009" cy="496.178" width="23.69" height="14.4037"/>
				<g id="shadow95-164" v:groupContext="shadow" v:shadowOffsetX="0.345598" v:shadowOffsetY="-1.97279" v:shadowType="1"
						transform="matrix(1,0,0,1,0.345598,1.97279)" class="st13">
					<text x="9.96" y="499.78" class="st22" v:langID="2052"><v:paragraph v:horizAlign="1"/><v:tabList/>S/M</text>				</g>
				<text x="9.96" y="499.78" class="st23" v:langID="2052"><v:paragraph v:horizAlign="1"/><v:tabList/>S/M</text>			</g>
		</g>
		<g id="shape103-168" v:mID="103" v:groupContext="shape" transform="translate(184.252,-439.37)">
			<title>框.91</title>
			<v:userDefs>
				<v:ud v:nameU="visVersion" v:val="VT0(15):26"/>
			</v:userDefs>
			<rect x="0" y="442.833" width="121.89" height="46.1433" class="st2"/>
		</g>
		<g id="shape106-170" v:mID="106" v:groupContext="shape" transform="translate(363.313,-396.85)">
			<title>框.104</title>
			<desc>采用 t 年4月底前披露的 t-1 年的市值 和账面市值比数据</desc>
			<v:userDefs>
				<v:ud v:nameU="visVersion" v:val="VT0(15):26"/>
			</v:userDefs>
			<v:textBlock v:margins="rect(4,4,4,4)" v:tabSpace="42.5197"/>
			<v:textRect cx="130.181" cy="465.905" width="260.37" height="46.1433"/>
			<rect x="0" y="442.833" width="260.362" height="46.1433" class="st7"/>
			<text x="20.91" y="461.03" class="st8" v:langID="2052"><v:paragraph v:spLine="-1.5" v:horizAlign="1"/><v:tabList/>采用<tspan
						class="st9"> </tspan><tspan class="st10">t</tspan><tspan class="st11"> </tspan>年4月底前披露的<tspan class="st9"> </tspan><tspan
						class="st10">t</tspan><tspan class="st10">-</tspan><tspan class="st10">1</tspan><tspan class="st9"> </tspan>年的市值<v:newlineChar/><tspan
						x="77.98" dy="1.5em" class="st12">和账面市值比数据</tspan></text>		</g>
		<g id="shape114-182" v:mID="114" v:groupContext="shape" v:layerMember="0" transform="translate(493.494,-396.85)">
			<title>动态连接线.124</title>
			<path d="M0 488.98 L0 499.61 L-73.02 499.61 L-73.02 510.71" class="st4"/>
		</g>
		<g id="shape117-187" v:mID="117" v:groupContext="shape" transform="translate(128.13,-118.421)">
			<title>批量看板</title>
			<desc>2000年1月 25个组合的月均收益率和三因子</desc>
			<v:userDefs>
				<v:ud v:nameU="visVersion" v:prompt="" v:val="VT0(15):26"/>
				<v:ud v:nameU="corner" v:prompt="" v:val="VT0(0.11811023622047):24"/>
				<v:ud v:nameU="minWidth" v:prompt="" v:val="VT0(0.23622047244094):24"/>
				<v:ud v:nameU="minHeight" v:prompt="" v:val="VT0(0.24444444444444):1"/>
				<v:ud v:nameU="drop" v:prompt="" v:val="VT0(0.039370078740157):24"/>
				<v:ud v:nameU="minHeight" v:prompt="" v:val="VT0(0.34972007107205):1"/>
			</v:userDefs>
			<v:textBlock v:margins="rect(4,4,4,4)" v:tabSpace="42.5197"/>
			<v:textRect cx="197.855" cy="476.386" width="395.71" height="25.1798"/>
			<path d="M0 488.98 L395.71 488.98 L395.71 472.3 L387.21 463.8 L0 463.8 L0 488.98 ZM395.71 486.14 L395.71 472.3 L387.21
						 463.8 L2.83 463.8 L2.83 460.96 L5.67 460.96 L5.67 458.13 L392.87 458.13 L401.38 466.63 L401.38 483.31 L398.54
						 483.31 L398.54 486.14 L395.71 486.14 Z" class="st24"/>
			<path d="M0 488.98 L395.71 488.98 L395.71 472.3 L387.21 463.8 L0 463.8 L0 488.98" class="st25"/>
			<path d="M395.71 486.14 L395.71 472.3 L387.21 463.8 L2.83 463.8 L2.83 460.96 L5.67 460.96 L5.67 458.13 L392.87 458.13
						 L401.38 466.63 L401.38 483.31 L398.54 483.31 L398.54 486.14 L395.71 486.14" class="st25"/>
			<path d="M5.67 460.96 L390.04 460.96 L398.54 469.47 L398.54 483.31" class="st25"/>
			<text x="59.35" y="480.68" class="st26" v:langID="2052"><v:paragraph v:horizAlign="1"/><v:tabList/>2000<tspan
						class="st27">年</tspan>1<tspan class="st27">月</tspan>           25<tspan class="st27">个组合的月均收益率和三因子</tspan></text>		</g>
		<g id="shape118-196" v:mID="118" v:groupContext="shape" transform="translate(128.13,-81.1194)">
			<title>批量看板.140</title>
			<desc>2000年2月 25个组合的月均收益率和三因子</desc>
			<v:userDefs>
				<v:ud v:nameU="visVersion" v:prompt="" v:val="VT0(15):26"/>
				<v:ud v:nameU="corner" v:prompt="" v:val="VT0(0.11811023622047):24"/>
				<v:ud v:nameU="minWidth" v:prompt="" v:val="VT0(0.23622047244094):24"/>
				<v:ud v:nameU="minHeight" v:prompt="" v:val="VT0(0.24444444444444):1"/>
				<v:ud v:nameU="drop" v:prompt="" v:val="VT0(0.039370078740157):24"/>
				<v:ud v:nameU="minHeight" v:prompt="" v:val="VT0(0.34972007107205):1"/>
			</v:userDefs>
			<v:textBlock v:margins="rect(4,4,4,4)" v:tabSpace="42.5197"/>
			<v:textRect cx="197.855" cy="476.386" width="395.71" height="25.1798"/>
			<path d="M0 488.98 L395.71 488.98 L395.71 472.3 L387.21 463.8 L0 463.8 L0 488.98 ZM395.71 486.14 L395.71 472.3 L387.21
						 463.8 L2.83 463.8 L2.83 460.96 L5.67 460.96 L5.67 458.13 L392.87 458.13 L401.38 466.63 L401.38 483.31 L398.54
						 483.31 L398.54 486.14 L395.71 486.14 Z" class="st24"/>
			<path d="M0 488.98 L395.71 488.98 L395.71 472.3 L387.21 463.8 L0 463.8 L0 488.98" class="st25"/>
			<path d="M395.71 486.14 L395.71 472.3 L387.21 463.8 L2.83 463.8 L2.83 460.96 L5.67 460.96 L5.67 458.13 L392.87 458.13
						 L401.38 466.63 L401.38 483.31 L398.54 483.31 L398.54 486.14 L395.71 486.14" class="st25"/>
			<path d="M5.67 460.96 L390.04 460.96 L398.54 469.47 L398.54 483.31" class="st25"/>
			<text x="59.35" y="480.68" class="st26" v:langID="2052"><v:paragraph v:horizAlign="1"/><v:tabList/>2000<tspan
						class="st27">年</tspan>2<tspan class="st27">月</tspan>           25<tspan class="st27">个组合的月均收益率和三因子</tspan></text>		</g>
		<g id="shape119-205" v:mID="119" v:groupContext="shape" transform="translate(126.254,-18)">
			<title>批量看板.142</title>
			<desc>2019年12月 25个组合的月均收益率和三因子</desc>
			<v:userDefs>
				<v:ud v:nameU="visVersion" v:prompt="" v:val="VT0(15):26"/>
				<v:ud v:nameU="corner" v:prompt="" v:val="VT0(0.11811023622047):24"/>
				<v:ud v:nameU="minWidth" v:prompt="" v:val="VT0(0.23622047244094):24"/>
				<v:ud v:nameU="minHeight" v:prompt="" v:val="VT0(0.24444444444444):1"/>
				<v:ud v:nameU="drop" v:prompt="" v:val="VT0(0.039370078740157):24"/>
				<v:ud v:nameU="minHeight" v:prompt="" v:val="VT0(0.34972007107205):1"/>
			</v:userDefs>
			<v:textBlock v:margins="rect(4,4,4,4)" v:tabSpace="42.5197"/>
			<v:textRect cx="197.855" cy="476.386" width="395.71" height="25.1798"/>
			<path d="M0 488.98 L395.71 488.98 L395.71 472.3 L387.21 463.8 L0 463.8 L0 488.98 ZM395.71 486.14 L395.71 472.3 L387.21
						 463.8 L2.83 463.8 L2.83 460.96 L5.67 460.96 L5.67 458.13 L392.87 458.13 L401.38 466.63 L401.38 483.31 L398.54
						 483.31 L398.54 486.14 L395.71 486.14 Z" class="st24"/>
			<path d="M0 488.98 L395.71 488.98 L395.71 472.3 L387.21 463.8 L0 463.8 L0 488.98" class="st25"/>
			<path d="M395.71 486.14 L395.71 472.3 L387.21 463.8 L2.83 463.8 L2.83 460.96 L5.67 460.96 L5.67 458.13 L392.87 458.13
						 L401.38 466.63 L401.38 483.31 L398.54 483.31 L398.54 486.14 L395.71 486.14" class="st25"/>
			<path d="M5.67 460.96 L390.04 460.96 L398.54 469.47 L398.54 483.31" class="st25"/>
			<text x="56.1" y="480.68" class="st26" v:langID="2052"><v:paragraph v:horizAlign="1"/><v:tabList/>2019<tspan
						class="st27">年</tspan>12<tspan class="st27">月</tspan>           25<tspan class="st27">个组合的月均收益率和三因子</tspan></text>		</g>
		<g id="shape120-214" v:mID="120" v:groupContext="shape" transform="translate(808.535,399.387) rotate(90)">
			<title>框.146</title>
			<desc>···</desc>
			<v:userDefs>
				<v:ud v:nameU="visVersion" v:val="VT0(15):26"/>
			</v:userDefs>
			<v:textBlock v:margins="rect(4,4,4,4)" v:tabSpace="42.5197"/>
			<v:textRect cx="24.0289" cy="479.992" width="48.06" height="17.9693"/>
			<rect x="0" y="471.007" width="48.0579" height="17.9693" class="st28"/>
			<text x="8.97" y="482.99" class="st29" v:langID="2052"><v:paragraph v:horizAlign="1"/><v:tabList/>···</text>		</g>
		<g id="shape123-217" v:mID="123" v:groupContext="shape" transform="translate(169.139,-321.732)">
			<title>框.123</title>
			<v:userDefs>
				<v:ud v:nameU="visVersion" v:val="VT0(15):26"/>
			</v:userDefs>
			<rect x="0" y="438.581" width="114.325" height="50.3953" class="st7"/>
		</g>
		<g id="shape124-219" v:mID="124" v:groupContext="shape" v:layerMember="0" transform="translate(154.754,-396.85)">
			<title>动态连接线.124</title>
			<path d="M0 488.98 L0 499.61 L71.55 499.61 L71.55 505.02" class="st4"/>
		</g>
		<g id="group133-224" transform="translate(169.635,-338.112)" v:mID="133" v:groupContext="group">
			<v:userDefs>
				<v:ud v:nameU="SkinColor" v:prompt="" v:val="VT5(#da8c36)"/>
				<v:ud v:nameU="visVersion" v:prompt="" v:val="VT0(15):26"/>
			</v:userDefs>
			<title>协议.133</title>
			<desc>L</desc>
			<g id="shape134-225" v:mID="134" v:groupContext="shape" transform="translate(6.29506,-3.50787)">
				<title>工作表.134</title>
				<g id="shadow134-226" v:groupContext="shadow" v:shadowOffsetX="0.3456" v:shadowOffsetY="-1.9728" v:shadowType="1"
						transform="matrix(1,0,0,1,0.3456,1.9728)" class="st13">
					<path d="M0 476.83 L2.35 478.65 L11 485.35 L25.07 474.33 L21.91 471.84 L22.65 468.64 L14.2 461.98 L0.11 473.03
								 L2.49 474.89 L0 476.83 ZM0.11 480.44 L11 488.98 L25.07 477.96 L22.8 476.17 L11 485.35 L2.35 478.66
								 L0.11 480.44 ZM2.35 478.66 L2.35 478.65 L2.35 478.66 Z" class="st14"/>
					<path d="M0 476.83 L2.35 478.65 L11 485.35 L25.07 474.33 L21.91 471.84 L22.65 468.64 L14.2 461.98 L0.11 473.03
								 L2.49 474.89 L0 476.83M0.11 480.44 L11 488.98 L25.07 477.96 L22.8 476.17 L11 485.35 L2.35 478.66
								 L0.11 480.44M2.35 478.66 L2.35 478.65" class="st15"/>
				</g>
				<path d="M0 476.83 L2.35 478.65 L11 485.35 L25.07 474.33 L21.91 471.84 L22.65 468.64 L14.2 461.98 L0.11 473.03 L2.49
							 474.89 L0 476.83 ZM0.11 480.44 L11 488.98 L25.07 477.96 L22.8 476.17 L11 485.35 L2.35 478.66 L0.11 480.44
							 ZM2.35 478.66 L2.35 478.65 L2.35 478.66 Z" class="st16"/>
				<path d="M0 476.83 L2.35 478.65 L11 485.35 L25.07 474.33 L21.91 471.84 L22.65 468.64 L14.2 461.98 L0.11 473.03 L2.49
							 474.89 L0 476.83M0.11 480.44 L11 488.98 L25.07 477.96 L22.8 476.17 L11 485.35 L2.35 478.66 L0.11 480.44M2.35
							 478.66 L2.35 478.65" class="st17"/>
			</g>
			<g id="shape135-233" v:mID="135" v:groupContext="shape" transform="translate(6.29506,-3.50831)">
				<title>工作表.135</title>
				<path d="M0.11 480.44 L2.36 478.65 L11 485.35 L22.8 476.17 L25.07 477.96 L11 488.98 L0.11 480.44 ZM0 476.83 L14.2
							 465.75 L25.07 474.33 L11 485.35 L0 476.83 Z" class="st18"/>
			</g>
			<g id="shape136-236" v:mID="136" v:groupContext="shape" transform="translate(6.40315,-10.9119)">
				<title>工作表.136</title>
				<path d="M22.54 476.04 L14.09 469.38 L0 480.43 L10.9 488.98 L21.47 480.69 L22.54 476.04 Z" class="st18"/>
			</g>
			<g id="shape137-239" v:mID="137" v:groupContext="shape" transform="translate(24.9722,-18.9113)">
				<title>工作表.137</title>
				<path d="M0.46 486.68 L2.81 488.6 L2.3 488.98 L0 487.15 L0.46 486.68 Z" class="st16"/>
				<path d="M0.46 486.68 L2.81 488.6 L2.3 488.98 L0 487.15" class="st17"/>
			</g>
			<g id="shape138-242" v:mID="138" v:groupContext="shape" transform="translate(25.434,-19.1963)">
				<title>工作表.138</title>
				<path d="M2.44 488.98 L0 486.96 L3.51 484.33 L2.44 488.98 Z" class="st19"/>
			</g>
			<g id="shape139-245" v:mID="139" v:groupContext="shape" transform="translate(10.7171,-14.7157)">
				<title>工作表.139</title>
				<path d="M7.51 488.98 L0 483.08 L7.51 488.98 ZM9.52 487.51 L1.95 481.56 L9.52 487.51 ZM11.57 485.83 L4.03 479.91
							 L11.57 485.83 ZM13.64 484.2 L6.1 478.28 L13.64 484.2 ZM13.13 480.84 L7.91 476.74 L13.13 480.84 Z"
						class="st16"/>
				<path d="M7.51 488.98 L0 483.08M9.52 487.51 L1.95 481.56M11.57 485.83 L4.03 479.91M13.64 484.2 L6.1 478.28M13.13
							 480.84 L7.91 476.74" class="st20"/>
			</g>
			<g id="shape140-248" v:mID="140" v:groupContext="shape" transform="translate(6.29506,-3.50831)">
				<title>工作表.140</title>
				<path d="M22.8 476.17 L25.07 474.33 L21.92 471.85 L22.65 468.64 L14.2 461.98 L0.11 473.03 L2.43 474.88 L0 476.83
							 L2.36 478.65 L0.11 480.44 L11 488.98 L25.07 477.96 L22.8 476.17 Z" class="st21"/>
			</g>
			<g id="shape133-250" v:mID="133" v:groupContext="groupContent">
				<v:textBlock v:margins="rect(0,0,0,0)" v:tabSpace="42.5197"/>
				<v:textRect cx="18.8281" cy="496.178" width="10.34" height="14.4037"/>
				<g id="shadow133-251" v:groupContext="shadow" v:shadowOffsetX="0.345598" v:shadowOffsetY="-1.97279"
						v:shadowType="1" transform="matrix(1,0,0,1,0.345598,1.97279)" class="st13">
					<text x="15.16" y="499.78" class="st22" v:langID="2052"><v:paragraph v:horizAlign="1"/><v:tabList/>L</text>				</g>
				<text x="15.16" y="499.78" class="st23" v:langID="2052"><v:paragraph v:horizAlign="1"/><v:tabList/>L</text>			</g>
		</g>
		<g id="group141-255" transform="translate(246.304,-338.112)" v:mID="141" v:groupContext="group">
			<v:userDefs>
				<v:ud v:nameU="SkinColor" v:prompt="" v:val="VT5(#da8c36)"/>
				<v:ud v:nameU="visVersion" v:prompt="" v:val="VT0(15):26"/>
			</v:userDefs>
			<title>协议.141</title>
			<desc>H</desc>
			<g id="shape142-256" v:mID="142" v:groupContext="shape" transform="translate(6.29506,-3.50787)">
				<title>工作表.142</title>
				<g id="shadow142-257" v:groupContext="shadow" v:shadowOffsetX="0.3456" v:shadowOffsetY="-1.9728" v:shadowType="1"
						transform="matrix(1,0,0,1,0.3456,1.9728)" class="st13">
					<path d="M0 476.83 L2.35 478.65 L11 485.35 L25.07 474.33 L21.91 471.84 L22.65 468.64 L14.2 461.98 L0.11 473.03
								 L2.49 474.89 L0 476.83 ZM0.11 480.44 L11 488.98 L25.07 477.96 L22.8 476.17 L11 485.35 L2.35 478.66
								 L0.11 480.44 ZM2.35 478.66 L2.35 478.65 L2.35 478.66 Z" class="st14"/>
					<path d="M0 476.83 L2.35 478.65 L11 485.35 L25.07 474.33 L21.91 471.84 L22.65 468.64 L14.2 461.98 L0.11 473.03
								 L2.49 474.89 L0 476.83M0.11 480.44 L11 488.98 L25.07 477.96 L22.8 476.17 L11 485.35 L2.35 478.66
								 L0.11 480.44M2.35 478.66 L2.35 478.65" class="st15"/>
				</g>
				<path d="M0 476.83 L2.35 478.65 L11 485.35 L25.07 474.33 L21.91 471.84 L22.65 468.64 L14.2 461.98 L0.11 473.03 L2.49
							 474.89 L0 476.83 ZM0.11 480.44 L11 488.98 L25.07 477.96 L22.8 476.17 L11 485.35 L2.35 478.66 L0.11 480.44
							 ZM2.35 478.66 L2.35 478.65 L2.35 478.66 Z" class="st16"/>
				<path d="M0 476.83 L2.35 478.65 L11 485.35 L25.07 474.33 L21.91 471.84 L22.65 468.64 L14.2 461.98 L0.11 473.03 L2.49
							 474.89 L0 476.83M0.11 480.44 L11 488.98 L25.07 477.96 L22.8 476.17 L11 485.35 L2.35 478.66 L0.11 480.44M2.35
							 478.66 L2.35 478.65" class="st17"/>
			</g>
			<g id="shape143-264" v:mID="143" v:groupContext="shape" transform="translate(6.29506,-3.50831)">
				<title>工作表.143</title>
				<path d="M0.11 480.44 L2.36 478.65 L11 485.35 L22.8 476.17 L25.07 477.96 L11 488.98 L0.11 480.44 ZM0 476.83 L14.2
							 465.75 L25.07 474.33 L11 485.35 L0 476.83 Z" class="st18"/>
			</g>
			<g id="shape144-267" v:mID="144" v:groupContext="shape" transform="translate(6.40315,-10.9119)">
				<title>工作表.144</title>
				<path d="M22.54 476.04 L14.09 469.38 L0 480.43 L10.9 488.98 L21.47 480.69 L22.54 476.04 Z" class="st18"/>
			</g>
			<g id="shape145-270" v:mID="145" v:groupContext="shape" transform="translate(24.9722,-18.9113)">
				<title>工作表.145</title>
				<path d="M0.46 486.68 L2.81 488.6 L2.3 488.98 L0 487.15 L0.46 486.68 Z" class="st16"/>
				<path d="M0.46 486.68 L2.81 488.6 L2.3 488.98 L0 487.15" class="st17"/>
			</g>
			<g id="shape146-273" v:mID="146" v:groupContext="shape" transform="translate(25.434,-19.1963)">
				<title>工作表.146</title>
				<path d="M2.44 488.98 L0 486.96 L3.51 484.33 L2.44 488.98 Z" class="st19"/>
			</g>
			<g id="shape147-276" v:mID="147" v:groupContext="shape" transform="translate(10.7171,-14.7157)">
				<title>工作表.147</title>
				<path d="M7.51 488.98 L0 483.08 L7.51 488.98 ZM9.52 487.51 L1.95 481.56 L9.52 487.51 ZM11.57 485.83 L4.03 479.91
							 L11.57 485.83 ZM13.64 484.2 L6.1 478.28 L13.64 484.2 ZM13.13 480.84 L7.91 476.74 L13.13 480.84 Z"
						class="st16"/>
				<path d="M7.51 488.98 L0 483.08M9.52 487.51 L1.95 481.56M11.57 485.83 L4.03 479.91M13.64 484.2 L6.1 478.28M13.13
							 480.84 L7.91 476.74" class="st20"/>
			</g>
			<g id="shape148-279" v:mID="148" v:groupContext="shape" transform="translate(6.29506,-3.50831)">
				<title>工作表.148</title>
				<path d="M22.8 476.17 L25.07 474.33 L21.92 471.85 L22.65 468.64 L14.2 461.98 L0.11 473.03 L2.43 474.88 L0 476.83
							 L2.36 478.65 L0.11 480.44 L11 488.98 L25.07 477.96 L22.8 476.17 Z" class="st21"/>
			</g>
			<g id="shape141-281" v:mID="141" v:groupContext="groupContent">
				<v:textBlock v:margins="rect(0,0,0,0)" v:tabSpace="42.5197"/>
				<v:textRect cx="18.8281" cy="496.178" width="12.34" height="14.4037"/>
				<g id="shadow141-282" v:groupContext="shadow" v:shadowOffsetX="0.345598" v:shadowOffsetY="-1.97279"
						v:shadowType="1" transform="matrix(1,0,0,1,0.345598,1.97279)" class="st13">
					<text x="14.16" y="499.78" class="st22" v:langID="2052"><v:paragraph v:horizAlign="1"/><v:tabList/>H</text>				</g>
				<text x="14.16" y="499.78" class="st23" v:langID="2052"><v:paragraph v:horizAlign="1"/><v:tabList/>H</text>			</g>
		</g>
		<g id="group149-286" transform="translate(207.97,-338.112)" v:mID="149" v:groupContext="group">
			<v:userDefs>
				<v:ud v:nameU="SkinColor" v:prompt="" v:val="VT5(#da8c36)"/>
				<v:ud v:nameU="visVersion" v:prompt="" v:val="VT0(15):26"/>
			</v:userDefs>
			<title>协议.149</title>
			<desc>M</desc>
			<g id="shape150-287" v:mID="150" v:groupContext="shape" transform="translate(6.29506,-3.50787)">
				<title>工作表.150</title>
				<g id="shadow150-288" v:groupContext="shadow" v:shadowOffsetX="0.3456" v:shadowOffsetY="-1.9728" v:shadowType="1"
						transform="matrix(1,0,0,1,0.3456,1.9728)" class="st13">
					<path d="M0 476.83 L2.35 478.65 L11 485.35 L25.07 474.33 L21.91 471.84 L22.65 468.64 L14.2 461.98 L0.11 473.03
								 L2.49 474.89 L0 476.83 ZM0.11 480.44 L11 488.98 L25.07 477.96 L22.8 476.17 L11 485.35 L2.35 478.66
								 L0.11 480.44 ZM2.35 478.66 L2.35 478.65 L2.35 478.66 Z" class="st14"/>
					<path d="M0 476.83 L2.35 478.65 L11 485.35 L25.07 474.33 L21.91 471.84 L22.65 468.64 L14.2 461.98 L0.11 473.03
								 L2.49 474.89 L0 476.83M0.11 480.44 L11 488.98 L25.07 477.96 L22.8 476.17 L11 485.35 L2.35 478.66
								 L0.11 480.44M2.35 478.66 L2.35 478.65" class="st15"/>
				</g>
				<path d="M0 476.83 L2.35 478.65 L11 485.35 L25.07 474.33 L21.91 471.84 L22.65 468.64 L14.2 461.98 L0.11 473.03 L2.49
							 474.89 L0 476.83 ZM0.11 480.44 L11 488.98 L25.07 477.96 L22.8 476.17 L11 485.35 L2.35 478.66 L0.11 480.44
							 ZM2.35 478.66 L2.35 478.65 L2.35 478.66 Z" class="st16"/>
				<path d="M0 476.83 L2.35 478.65 L11 485.35 L25.07 474.33 L21.91 471.84 L22.65 468.64 L14.2 461.98 L0.11 473.03 L2.49
							 474.89 L0 476.83M0.11 480.44 L11 488.98 L25.07 477.96 L22.8 476.17 L11 485.35 L2.35 478.66 L0.11 480.44M2.35
							 478.66 L2.35 478.65" class="st17"/>
			</g>
			<g id="shape151-295" v:mID="151" v:groupContext="shape" transform="translate(6.29506,-3.50831)">
				<title>工作表.151</title>
				<path d="M0.11 480.44 L2.36 478.65 L11 485.35 L22.8 476.17 L25.07 477.96 L11 488.98 L0.11 480.44 ZM0 476.83 L14.2
							 465.75 L25.07 474.33 L11 485.35 L0 476.83 Z" class="st18"/>
			</g>
			<g id="shape152-298" v:mID="152" v:groupContext="shape" transform="translate(6.40315,-10.9119)">
				<title>工作表.152</title>
				<path d="M22.54 476.04 L14.09 469.38 L0 480.43 L10.9 488.98 L21.47 480.69 L22.54 476.04 Z" class="st18"/>
			</g>
			<g id="shape153-301" v:mID="153" v:groupContext="shape" transform="translate(24.9722,-18.9113)">
				<title>工作表.153</title>
				<path d="M0.46 486.68 L2.81 488.6 L2.3 488.98 L0 487.15 L0.46 486.68 Z" class="st16"/>
				<path d="M0.46 486.68 L2.81 488.6 L2.3 488.98 L0 487.15" class="st17"/>
			</g>
			<g id="shape154-304" v:mID="154" v:groupContext="shape" transform="translate(25.434,-19.1963)">
				<title>工作表.154</title>
				<path d="M2.44 488.98 L0 486.96 L3.51 484.33 L2.44 488.98 Z" class="st19"/>
			</g>
			<g id="shape155-307" v:mID="155" v:groupContext="shape" transform="translate(10.7171,-14.7157)">
				<title>工作表.155</title>
				<path d="M7.51 488.98 L0 483.08 L7.51 488.98 ZM9.52 487.51 L1.95 481.56 L9.52 487.51 ZM11.57 485.83 L4.03 479.91
							 L11.57 485.83 ZM13.64 484.2 L6.1 478.28 L13.64 484.2 ZM13.13 480.84 L7.91 476.74 L13.13 480.84 Z"
						class="st16"/>
				<path d="M7.51 488.98 L0 483.08M9.52 487.51 L1.95 481.56M11.57 485.83 L4.03 479.91M13.64 484.2 L6.1 478.28M13.13
							 480.84 L7.91 476.74" class="st20"/>
			</g>
			<g id="shape156-310" v:mID="156" v:groupContext="shape" transform="translate(6.29506,-3.50831)">
				<title>工作表.156</title>
				<path d="M22.8 476.17 L25.07 474.33 L21.92 471.85 L22.65 468.64 L14.2 461.98 L0.11 473.03 L2.43 474.88 L0 476.83
							 L2.36 478.65 L0.11 480.44 L11 488.98 L25.07 477.96 L22.8 476.17 Z" class="st21"/>
			</g>
			<g id="shape149-312" v:mID="149" v:groupContext="groupContent">
				<v:textBlock v:margins="rect(0,0,0,0)" v:tabSpace="42.5197"/>
				<v:textRect cx="18.8281" cy="496.178" width="13.68" height="14.4037"/>
				<g id="shadow149-313" v:groupContext="shadow" v:shadowOffsetX="0.345598" v:shadowOffsetY="-1.97279"
						v:shadowType="1" transform="matrix(1,0,0,1,0.345598,1.97279)" class="st13">
					<text x="13.49" y="499.78" class="st22" v:langID="2052"><v:paragraph v:horizAlign="1"/><v:tabList/>M</text>				</g>
				<text x="13.49" y="499.78" class="st23" v:langID="2052"><v:paragraph v:horizAlign="1"/><v:tabList/>M</text>			</g>
		</g>
		<g id="shape159-317" v:mID="159" v:groupContext="shape" transform="translate(481.684,-200.483) rotate(45)">
			<title>十字形</title>
			<v:userDefs>
				<v:ud v:nameU="ScaleFactor" v:val="VT0(1):26"/>
				<v:ud v:nameU="ControlX1" v:val="VT0(0):26"/>
				<v:ud v:nameU="ControlY1" v:val="VT0(0.66929133858268):24"/>
				<v:ud v:nameU="ControlX2" v:val="VT0(0.66929133858268):24"/>
				<v:ud v:nameU="ControlY2" v:val="VT0(0):26"/>
				<v:ud v:nameU="visVersion" v:val="VT0(15):26"/>
				<v:ud v:nameU="LockBars" v:prompt="" v:val="VT0(1):5"/>
				<v:ud v:nameU="ControlY1" v:prompt="" v:val="VT0(0.14750482500397):1"/>
				<v:ud v:nameU="ControlX2" v:prompt="" v:val="VT0(0.14750482500397):1"/>
			</v:userDefs>
			<path d="M0 478.36 L10.62 478.36 L10.62 488.98 L16.01 488.98 L16.01 478.36 L26.63 478.36 L26.63 472.97 L16.01 472.97
						 L16.01 462.35 L10.62 462.35 L10.62 472.97 L0 472.97 L0 478.36 Z" class="st30"/>
		</g>
		<g id="group161-319" transform="translate(113.386,-266.457)" v:mID="161" v:groupContext="group">
			<v:userDefs>
				<v:ud v:nameU="SkinColor" v:prompt="" v:val="VT5(#da8c36)"/>
				<v:ud v:nameU="visVersion" v:prompt="" v:val="VT0(15):26"/>
			</v:userDefs>
			<title>协议.161</title>
			<desc>S/H</desc>
			<g id="shape162-320" v:mID="162" v:groupContext="shape" transform="translate(6.78749,-3.50787)">
				<title>工作表.162</title>
				<g id="shadow162-321" v:groupContext="shadow" v:shadowOffsetX="0.3456" v:shadowOffsetY="-1.9728" v:shadowType="1"
						transform="matrix(1,0,0,1,0.3456,1.9728)" class="st13">
					<path d="M0 476.83 L2.53 478.65 L11.86 485.35 L27.03 474.33 L23.63 471.84 L24.42 468.64 L15.31 461.98 L0.12 473.03
								 L2.68 474.89 L0 476.83 ZM0.12 480.44 L11.86 488.98 L27.03 477.96 L24.59 476.17 L11.86 485.35 L2.54
								 478.66 L0.12 480.44 ZM2.54 478.66 L2.53 478.65 L2.54 478.66 Z" class="st14"/>
					<path d="M0 476.83 L2.53 478.65 L11.86 485.35 L27.03 474.33 L23.63 471.84 L24.42 468.64 L15.31 461.98 L0.12 473.03
								 L2.68 474.89 L0 476.83M0.12 480.44 L11.86 488.98 L27.03 477.96 L24.59 476.17 L11.86 485.35 L2.54
								 478.66 L0.12 480.44M2.54 478.66 L2.53 478.65" class="st15"/>
				</g>
				<path d="M0 476.83 L2.53 478.65 L11.86 485.35 L27.03 474.33 L23.63 471.84 L24.42 468.64 L15.31 461.98 L0.12 473.03
							 L2.68 474.89 L0 476.83 ZM0.12 480.44 L11.86 488.98 L27.03 477.96 L24.59 476.17 L11.86 485.35 L2.54 478.66
							 L0.12 480.44 ZM2.54 478.66 L2.53 478.65 L2.54 478.66 Z" class="st16"/>
				<path d="M0 476.83 L2.53 478.65 L11.86 485.35 L27.03 474.33 L23.63 471.84 L24.42 468.64 L15.31 461.98 L0.12 473.03
							 L2.68 474.89 L0 476.83M0.12 480.44 L11.86 488.98 L27.03 477.96 L24.59 476.17 L11.86 485.35 L2.54 478.66
							 L0.12 480.44M2.54 478.66 L2.53 478.65" class="st17"/>
			</g>
			<g id="shape163-328" v:mID="163" v:groupContext="shape" transform="translate(6.78749,-3.50831)">
				<title>工作表.163</title>
				<path d="M0.12 480.44 L2.54 478.65 L11.86 485.35 L24.59 476.17 L27.03 477.96 L11.86 488.98 L0.12 480.44 ZM0 476.83
							 L15.31 465.75 L27.03 474.33 L11.86 485.35 L0 476.83 Z" class="st18"/>
			</g>
			<g id="shape164-331" v:mID="164" v:groupContext="shape" transform="translate(6.90403,-10.9119)">
				<title>工作表.164</title>
				<path d="M24.3 476.04 L15.19 469.38 L0 480.43 L11.75 488.98 L23.15 480.69 L24.3 476.04 Z" class="st18"/>
			</g>
			<g id="shape165-334" v:mID="165" v:groupContext="shape" transform="translate(26.9256,-18.9113)">
				<title>工作表.165</title>
				<path d="M0.5 486.68 L3.03 488.6 L2.48 488.98 L0 487.15 L0.5 486.68 Z" class="st16"/>
				<path d="M0.5 486.68 L3.03 488.6 L2.48 488.98 L0 487.15" class="st17"/>
			</g>
			<g id="shape166-337" v:mID="166" v:groupContext="shape" transform="translate(27.4236,-19.1963)">
				<title>工作表.166</title>
				<path d="M2.63 488.98 L0 486.96 L3.78 484.33 L2.63 488.98 Z" class="st19"/>
			</g>
			<g id="shape167-340" v:mID="167" v:groupContext="shape" transform="translate(11.5554,-14.7157)">
				<title>工作表.167</title>
				<path d="M8.1 488.98 L0 483.08 L8.1 488.98 ZM10.26 487.51 L2.1 481.56 L10.26 487.51 ZM12.47 485.83 L4.35 479.91 L12.47
							 485.83 ZM14.7 484.2 L6.58 478.28 L14.7 484.2 ZM14.16 480.84 L8.53 476.74 L14.16 480.84 Z" class="st16"/>
				<path d="M8.1 488.98 L0 483.08M10.26 487.51 L2.1 481.56M12.47 485.83 L4.35 479.91M14.7 484.2 L6.58 478.28M14.16 480.84
							 L8.53 476.74" class="st20"/>
			</g>
			<g id="shape168-343" v:mID="168" v:groupContext="shape" transform="translate(6.78749,-3.50831)">
				<title>工作表.168</title>
				<path d="M24.59 476.17 L27.03 474.33 L23.63 471.85 L24.42 468.64 L15.31 461.98 L0.12 473.03 L2.62 474.88 L0 476.83
							 L2.54 478.65 L0.12 480.44 L11.86 488.98 L27.03 477.96 L24.59 476.17 Z" class="st21"/>
			</g>
			<g id="shape161-345" v:mID="161" v:groupContext="groupContent">
				<v:textBlock v:margins="rect(0,0,0,0)" v:tabSpace="42.5197"/>
				<v:textRect cx="20.3009" cy="496.178" width="22.35" height="14.4037"/>
				<g id="shadow161-346" v:groupContext="shadow" v:shadowOffsetX="0.345598" v:shadowOffsetY="-1.97279"
						v:shadowType="1" transform="matrix(1,0,0,1,0.345598,1.97279)" class="st13">
					<text x="10.63" y="499.78" class="st22" v:langID="2052"><v:paragraph v:horizAlign="1"/><v:tabList/>S/H</text>				</g>
				<text x="10.63" y="499.78" class="st23" v:langID="2052"><v:paragraph v:horizAlign="1"/><v:tabList/>S/H</text>			</g>
		</g>
		<g id="group169-350" transform="translate(157.793,-266.457)" v:mID="169" v:groupContext="group">
			<v:userDefs>
				<v:ud v:nameU="SkinColor" v:prompt="" v:val="VT5(#da8c36)"/>
				<v:ud v:nameU="visVersion" v:prompt="" v:val="VT0(15):26"/>
			</v:userDefs>
			<title>协议.169</title>
			<desc>B/L</desc>
			<g id="shape170-351" v:mID="170" v:groupContext="shape" transform="translate(6.78749,-3.50787)">
				<title>工作表.170</title>
				<g id="shadow170-352" v:groupContext="shadow" v:shadowOffsetX="0.3456" v:shadowOffsetY="-1.9728" v:shadowType="1"
						transform="matrix(1,0,0,1,0.3456,1.9728)" class="st13">
					<path d="M0 476.83 L2.53 478.65 L11.86 485.35 L27.03 474.33 L23.63 471.84 L24.42 468.64 L15.31 461.98 L0.12 473.03
								 L2.68 474.89 L0 476.83 ZM0.12 480.44 L11.86 488.98 L27.03 477.96 L24.59 476.17 L11.86 485.35 L2.54
								 478.66 L0.12 480.44 ZM2.54 478.66 L2.53 478.65 L2.54 478.66 Z" class="st14"/>
					<path d="M0 476.83 L2.53 478.65 L11.86 485.35 L27.03 474.33 L23.63 471.84 L24.42 468.64 L15.31 461.98 L0.12 473.03
								 L2.68 474.89 L0 476.83M0.12 480.44 L11.86 488.98 L27.03 477.96 L24.59 476.17 L11.86 485.35 L2.54
								 478.66 L0.12 480.44M2.54 478.66 L2.53 478.65" class="st15"/>
				</g>
				<path d="M0 476.83 L2.53 478.65 L11.86 485.35 L27.03 474.33 L23.63 471.84 L24.42 468.64 L15.31 461.98 L0.12 473.03
							 L2.68 474.89 L0 476.83 ZM0.12 480.44 L11.86 488.98 L27.03 477.96 L24.59 476.17 L11.86 485.35 L2.54 478.66
							 L0.12 480.44 ZM2.54 478.66 L2.53 478.65 L2.54 478.66 Z" class="st16"/>
				<path d="M0 476.83 L2.53 478.65 L11.86 485.35 L27.03 474.33 L23.63 471.84 L24.42 468.64 L15.31 461.98 L0.12 473.03
							 L2.68 474.89 L0 476.83M0.12 480.44 L11.86 488.98 L27.03 477.96 L24.59 476.17 L11.86 485.35 L2.54 478.66
							 L0.12 480.44M2.54 478.66 L2.53 478.65" class="st17"/>
			</g>
			<g id="shape171-359" v:mID="171" v:groupContext="shape" transform="translate(6.78749,-3.50831)">
				<title>工作表.171</title>
				<path d="M0.12 480.44 L2.54 478.65 L11.86 485.35 L24.59 476.17 L27.03 477.96 L11.86 488.98 L0.12 480.44 ZM0 476.83
							 L15.31 465.75 L27.03 474.33 L11.86 485.35 L0 476.83 Z" class="st18"/>
			</g>
			<g id="shape172-362" v:mID="172" v:groupContext="shape" transform="translate(6.90403,-10.9119)">
				<title>工作表.172</title>
				<path d="M24.3 476.04 L15.19 469.38 L0 480.43 L11.75 488.98 L23.15 480.69 L24.3 476.04 Z" class="st18"/>
			</g>
			<g id="shape173-365" v:mID="173" v:groupContext="shape" transform="translate(26.9256,-18.9113)">
				<title>工作表.173</title>
				<path d="M0.5 486.68 L3.03 488.6 L2.48 488.98 L0 487.15 L0.5 486.68 Z" class="st16"/>
				<path d="M0.5 486.68 L3.03 488.6 L2.48 488.98 L0 487.15" class="st17"/>
			</g>
			<g id="shape174-368" v:mID="174" v:groupContext="shape" transform="translate(27.4236,-19.1963)">
				<title>工作表.174</title>
				<path d="M2.63 488.98 L0 486.96 L3.78 484.33 L2.63 488.98 Z" class="st19"/>
			</g>
			<g id="shape175-371" v:mID="175" v:groupContext="shape" transform="translate(11.5554,-14.7157)">
				<title>工作表.175</title>
				<path d="M8.1 488.98 L0 483.08 L8.1 488.98 ZM10.26 487.51 L2.1 481.56 L10.26 487.51 ZM12.47 485.83 L4.35 479.91 L12.47
							 485.83 ZM14.7 484.2 L6.58 478.28 L14.7 484.2 ZM14.16 480.84 L8.53 476.74 L14.16 480.84 Z" class="st16"/>
				<path d="M8.1 488.98 L0 483.08M10.26 487.51 L2.1 481.56M12.47 485.83 L4.35 479.91M14.7 484.2 L6.58 478.28M14.16 480.84
							 L8.53 476.74" class="st20"/>
			</g>
			<g id="shape176-374" v:mID="176" v:groupContext="shape" transform="translate(6.78749,-3.50831)">
				<title>工作表.176</title>
				<path d="M24.59 476.17 L27.03 474.33 L23.63 471.85 L24.42 468.64 L15.31 461.98 L0.12 473.03 L2.62 474.88 L0 476.83
							 L2.54 478.65 L0.12 480.44 L11.86 488.98 L27.03 477.96 L24.59 476.17 Z" class="st21"/>
			</g>
			<g id="shape169-376" v:mID="169" v:groupContext="groupContent">
				<v:textBlock v:margins="rect(0,0,0,0)" v:tabSpace="42.5197"/>
				<v:textRect cx="20.3009" cy="496.178" width="21.68" height="14.4037"/>
				<g id="shadow169-377" v:groupContext="shadow" v:shadowOffsetX="0.345598" v:shadowOffsetY="-1.97279"
						v:shadowType="1" transform="matrix(1,0,0,1,0.345598,1.97279)" class="st13">
					<text x="10.97" y="499.78" class="st22" v:langID="2052"><v:paragraph v:horizAlign="1"/><v:tabList/>B/L</text>				</g>
				<text x="10.97" y="499.78" class="st23" v:langID="2052"><v:paragraph v:horizAlign="1"/><v:tabList/>B/L</text>			</g>
		</g>
		<g id="shape177-381" v:mID="177" v:groupContext="shape" transform="translate(24.6415,-309.543)">
			<title>框.177</title>
			<desc>按照市值中位点</desc>
			<v:userDefs>
				<v:ud v:nameU="visVersion" v:val="VT0(15):26"/>
			</v:userDefs>
			<v:textBlock v:margins="rect(4,4,4,4)" v:tabSpace="42.5197"/>
			<v:textRect cx="56.7374" cy="482.74" width="113.48" height="12.4724"/>
			<rect x="0" y="476.504" width="113.475" height="12.4724" class="st28"/>
			<text x="25.11" y="486.12" class="st31" v:langID="2052"><v:paragraph v:spLine="-1.5" v:horizAlign="1"/><v:tabList/>按照市值中位点</text>		</g>
		<g id="shape178-384" v:mID="178" v:groupContext="shape" transform="translate(168.945,-309.543)">
			<title>框.178</title>
			<desc>按照账面市值比三分位点</desc>
			<v:userDefs>
				<v:ud v:nameU="visVersion" v:val="VT0(15):26"/>
			</v:userDefs>
			<v:textBlock v:margins="rect(4,4,4,4)" v:tabSpace="42.5197"/>
			<v:textRect cx="56.7374" cy="482.74" width="113.48" height="12.4724"/>
			<rect x="0" y="476.504" width="113.475" height="12.4724" class="st28"/>
			<text x="7.04" y="486.12" class="st31" v:langID="2052"><v:paragraph v:spLine="-1.5" v:horizAlign="1"/><v:tabList/>按照账面市值比三分位点</text>		</g>
		<g id="shape181-387" v:mID="181" v:groupContext="shape" transform="translate(363.313,-332.422)">
			<title>框.181</title>
			<desc>市值 五分位点</desc>
			<v:userDefs>
				<v:ud v:nameU="visVersion" v:val="VT0(15):26"/>
			</v:userDefs>
			<v:textBlock v:margins="rect(4,4,4,4)" v:tabSpace="42.5197"/>
			<v:textRect cx="57.1626" cy="471.969" width="114.33" height="34.0157"/>
			<rect x="0" y="454.961" width="114.325" height="34.0157" class="st7"/>
			<text x="44.11" y="468.07" class="st8" v:langID="2052"><v:paragraph v:horizAlign="1"/><v:tabList/>市值<v:newlineChar/><tspan
						x="31.06" dy="1.2em" class="st12">五分位点</tspan></text>		</g>
		<g id="shape182-391" v:mID="182" v:groupContext="shape" transform="translate(509.35,-332.422)">
			<title>框.182</title>
			<desc>账面市值比 五分位点</desc>
			<v:userDefs>
				<v:ud v:nameU="visVersion" v:val="VT0(15):26"/>
			</v:userDefs>
			<v:textBlock v:margins="rect(4,4,4,4)" v:tabSpace="42.5197"/>
			<v:textRect cx="57.1626" cy="471.969" width="114.33" height="34.0157"/>
			<rect x="0" y="454.961" width="114.325" height="34.0157" class="st7"/>
			<text x="24.54" y="468.07" class="st8" v:langID="2052"><v:paragraph v:horizAlign="1"/><v:tabList/>账面市值比<v:newlineChar/><tspan
						x="31.06" dy="1.2em" class="st12">五分位点</tspan></text>		</g>
		<g id="shape183-395" v:mID="183" v:groupContext="shape" v:layerMember="0" transform="translate(493.494,-396.85)">
			<title>动态连接线.183</title>
			<path d="M0 488.98 L0 499.61 L73.02 499.61 L73.02 510.71" class="st4"/>
		</g>
		<g id="shape185-400" v:mID="185" v:groupContext="shape" transform="translate(820.424,-206.212) rotate(45)">
			<title>十字形.185</title>
			<v:userDefs>
				<v:ud v:nameU="ScaleFactor" v:val="VT0(1):26"/>
				<v:ud v:nameU="ControlX1" v:val="VT0(0):26"/>
				<v:ud v:nameU="ControlY1" v:val="VT0(0.66929133858268):24"/>
				<v:ud v:nameU="ControlX2" v:val="VT0(0.66929133858268):24"/>
				<v:ud v:nameU="ControlY2" v:val="VT0(0):26"/>
				<v:ud v:nameU="visVersion" v:val="VT0(15):26"/>
				<v:ud v:nameU="LockBars" v:prompt="" v:val="VT0(1):5"/>
				<v:ud v:nameU="ControlY1" v:prompt="" v:val="VT0(0.14750482500397):1"/>
				<v:ud v:nameU="ControlX2" v:prompt="" v:val="VT0(0.14750482500397):1"/>
			</v:userDefs>
			<path d="M0 478.36 L10.62 478.36 L10.62 488.98 L16.01 488.98 L16.01 478.36 L26.63 478.36 L26.63 472.97 L16.01 472.97
						 L16.01 462.35 L10.62 462.35 L10.62 472.97 L0 472.97 L0 478.36 Z" class="st30"/>
		</g>
		<g id="group202-402" transform="translate(202.199,-266.457)" v:mID="202" v:groupContext="group">
			<v:userDefs>
				<v:ud v:nameU="SkinColor" v:prompt="" v:val="VT5(#da8c36)"/>
				<v:ud v:nameU="visVersion" v:prompt="" v:val="VT0(15):26"/>
			</v:userDefs>
			<title>协议.202</title>
			<desc>B/M</desc>
			<g id="shape203-403" v:mID="203" v:groupContext="shape" transform="translate(6.78749,-3.50787)">
				<title>工作表.203</title>
				<g id="shadow203-404" v:groupContext="shadow" v:shadowOffsetX="0.3456" v:shadowOffsetY="-1.9728" v:shadowType="1"
						transform="matrix(1,0,0,1,0.3456,1.9728)" class="st13">
					<path d="M0 476.83 L2.53 478.65 L11.86 485.35 L27.03 474.33 L23.63 471.84 L24.42 468.64 L15.31 461.98 L0.12 473.03
								 L2.68 474.89 L0 476.83 ZM0.12 480.44 L11.86 488.98 L27.03 477.96 L24.59 476.17 L11.86 485.35 L2.54
								 478.66 L0.12 480.44 ZM2.54 478.66 L2.53 478.65 L2.54 478.66 Z" class="st14"/>
					<path d="M0 476.83 L2.53 478.65 L11.86 485.35 L27.03 474.33 L23.63 471.84 L24.42 468.64 L15.31 461.98 L0.12 473.03
								 L2.68 474.89 L0 476.83M0.12 480.44 L11.86 488.98 L27.03 477.96 L24.59 476.17 L11.86 485.35 L2.54
								 478.66 L0.12 480.44M2.54 478.66 L2.53 478.65" class="st15"/>
				</g>
				<path d="M0 476.83 L2.53 478.65 L11.86 485.35 L27.03 474.33 L23.63 471.84 L24.42 468.64 L15.31 461.98 L0.12 473.03
							 L2.68 474.89 L0 476.83 ZM0.12 480.44 L11.86 488.98 L27.03 477.96 L24.59 476.17 L11.86 485.35 L2.54 478.66
							 L0.12 480.44 ZM2.54 478.66 L2.53 478.65 L2.54 478.66 Z" class="st16"/>
				<path d="M0 476.83 L2.53 478.65 L11.86 485.35 L27.03 474.33 L23.63 471.84 L24.42 468.64 L15.31 461.98 L0.12 473.03
							 L2.68 474.89 L0 476.83M0.12 480.44 L11.86 488.98 L27.03 477.96 L24.59 476.17 L11.86 485.35 L2.54 478.66
							 L0.12 480.44M2.54 478.66 L2.53 478.65" class="st17"/>
			</g>
			<g id="shape204-411" v:mID="204" v:groupContext="shape" transform="translate(6.78749,-3.50831)">
				<title>工作表.204</title>
				<path d="M0.12 480.44 L2.54 478.65 L11.86 485.35 L24.59 476.17 L27.03 477.96 L11.86 488.98 L0.12 480.44 ZM0 476.83
							 L15.31 465.75 L27.03 474.33 L11.86 485.35 L0 476.83 Z" class="st18"/>
			</g>
			<g id="shape205-414" v:mID="205" v:groupContext="shape" transform="translate(6.90403,-10.9119)">
				<title>工作表.205</title>
				<path d="M24.3 476.04 L15.19 469.38 L0 480.43 L11.75 488.98 L23.15 480.69 L24.3 476.04 Z" class="st18"/>
			</g>
			<g id="shape206-417" v:mID="206" v:groupContext="shape" transform="translate(26.9256,-18.9113)">
				<title>工作表.206</title>
				<path d="M0.5 486.68 L3.03 488.6 L2.48 488.98 L0 487.15 L0.5 486.68 Z" class="st16"/>
				<path d="M0.5 486.68 L3.03 488.6 L2.48 488.98 L0 487.15" class="st17"/>
			</g>
			<g id="shape207-420" v:mID="207" v:groupContext="shape" transform="translate(27.4236,-19.1963)">
				<title>工作表.207</title>
				<path d="M2.63 488.98 L0 486.96 L3.78 484.33 L2.63 488.98 Z" class="st19"/>
			</g>
			<g id="shape208-423" v:mID="208" v:groupContext="shape" transform="translate(11.5554,-14.7157)">
				<title>工作表.208</title>
				<path d="M8.1 488.98 L0 483.08 L8.1 488.98 ZM10.26 487.51 L2.1 481.56 L10.26 487.51 ZM12.47 485.83 L4.35 479.91 L12.47
							 485.83 ZM14.7 484.2 L6.58 478.28 L14.7 484.2 ZM14.16 480.84 L8.53 476.74 L14.16 480.84 Z" class="st16"/>
				<path d="M8.1 488.98 L0 483.08M10.26 487.51 L2.1 481.56M12.47 485.83 L4.35 479.91M14.7 484.2 L6.58 478.28M14.16 480.84
							 L8.53 476.74" class="st20"/>
			</g>
			<g id="shape209-426" v:mID="209" v:groupContext="shape" transform="translate(6.78749,-3.50831)">
				<title>工作表.209</title>
				<path d="M24.59 476.17 L27.03 474.33 L23.63 471.85 L24.42 468.64 L15.31 461.98 L0.12 473.03 L2.62 474.88 L0 476.83
							 L2.54 478.65 L0.12 480.44 L11.86 488.98 L27.03 477.96 L24.59 476.17 Z" class="st21"/>
			</g>
			<g id="shape202-428" v:mID="202" v:groupContext="groupContent">
				<v:textBlock v:margins="rect(0,0,0,0)" v:tabSpace="42.5197"/>
				<v:textRect cx="20.3009" cy="496.178" width="25.02" height="14.4037"/>
				<g id="shadow202-429" v:groupContext="shadow" v:shadowOffsetX="0.345598" v:shadowOffsetY="-1.97279"
						v:shadowType="1" transform="matrix(1,0,0,1,0.345598,1.97279)" class="st13">
					<text x="9.3" y="499.78" class="st22" v:langID="2052"><v:paragraph v:horizAlign="1"/><v:tabList/>B/M</text>				</g>
				<text x="9.3" y="499.78" class="st23" v:langID="2052"><v:paragraph v:horizAlign="1"/><v:tabList/>B/M</text>			</g>
		</g>
		<g id="group210-433" transform="translate(244.333,-266.457)" v:mID="210" v:groupContext="group">
			<v:userDefs>
				<v:ud v:nameU="SkinColor" v:prompt="" v:val="VT5(#da8c36)"/>
				<v:ud v:nameU="visVersion" v:prompt="" v:val="VT0(15):26"/>
			</v:userDefs>
			<title>协议.210</title>
			<desc>B/H</desc>
			<g id="shape211-434" v:mID="211" v:groupContext="shape" transform="translate(6.78749,-3.50787)">
				<title>工作表.211</title>
				<g id="shadow211-435" v:groupContext="shadow" v:shadowOffsetX="0.3456" v:shadowOffsetY="-1.9728" v:shadowType="1"
						transform="matrix(1,0,0,1,0.3456,1.9728)" class="st13">
					<path d="M0 476.83 L2.53 478.65 L11.86 485.35 L27.03 474.33 L23.63 471.84 L24.42 468.64 L15.31 461.98 L0.12 473.03
								 L2.68 474.89 L0 476.83 ZM0.12 480.44 L11.86 488.98 L27.03 477.96 L24.59 476.17 L11.86 485.35 L2.54
								 478.66 L0.12 480.44 ZM2.54 478.66 L2.53 478.65 L2.54 478.66 Z" class="st14"/>
					<path d="M0 476.83 L2.53 478.65 L11.86 485.35 L27.03 474.33 L23.63 471.84 L24.42 468.64 L15.31 461.98 L0.12 473.03
								 L2.68 474.89 L0 476.83M0.12 480.44 L11.86 488.98 L27.03 477.96 L24.59 476.17 L11.86 485.35 L2.54
								 478.66 L0.12 480.44M2.54 478.66 L2.53 478.65" class="st15"/>
				</g>
				<path d="M0 476.83 L2.53 478.65 L11.86 485.35 L27.03 474.33 L23.63 471.84 L24.42 468.64 L15.31 461.98 L0.12 473.03
							 L2.68 474.89 L0 476.83 ZM0.12 480.44 L11.86 488.98 L27.03 477.96 L24.59 476.17 L11.86 485.35 L2.54 478.66
							 L0.12 480.44 ZM2.54 478.66 L2.53 478.65 L2.54 478.66 Z" class="st16"/>
				<path d="M0 476.83 L2.53 478.65 L11.86 485.35 L27.03 474.33 L23.63 471.84 L24.42 468.64 L15.31 461.98 L0.12 473.03
							 L2.68 474.89 L0 476.83M0.12 480.44 L11.86 488.98 L27.03 477.96 L24.59 476.17 L11.86 485.35 L2.54 478.66
							 L0.12 480.44M2.54 478.66 L2.53 478.65" class="st17"/>
			</g>
			<g id="shape212-442" v:mID="212" v:groupContext="shape" transform="translate(6.78749,-3.50831)">
				<title>工作表.212</title>
				<path d="M0.12 480.44 L2.54 478.65 L11.86 485.35 L24.59 476.17 L27.03 477.96 L11.86 488.98 L0.12 480.44 ZM0 476.83
							 L15.31 465.75 L27.03 474.33 L11.86 485.35 L0 476.83 Z" class="st18"/>
			</g>
			<g id="shape213-445" v:mID="213" v:groupContext="shape" transform="translate(6.90403,-10.9119)">
				<title>工作表.213</title>
				<path d="M24.3 476.04 L15.19 469.38 L0 480.43 L11.75 488.98 L23.15 480.69 L24.3 476.04 Z" class="st18"/>
			</g>
			<g id="shape214-448" v:mID="214" v:groupContext="shape" transform="translate(26.9256,-18.9113)">
				<title>工作表.214</title>
				<path d="M0.5 486.68 L3.03 488.6 L2.48 488.98 L0 487.15 L0.5 486.68 Z" class="st16"/>
				<path d="M0.5 486.68 L3.03 488.6 L2.48 488.98 L0 487.15" class="st17"/>
			</g>
			<g id="shape215-451" v:mID="215" v:groupContext="shape" transform="translate(27.4236,-19.1963)">
				<title>工作表.215</title>
				<path d="M2.63 488.98 L0 486.96 L3.78 484.33 L2.63 488.98 Z" class="st19"/>
			</g>
			<g id="shape216-454" v:mID="216" v:groupContext="shape" transform="translate(11.5554,-14.7157)">
				<title>工作表.216</title>
				<path d="M8.1 488.98 L0 483.08 L8.1 488.98 ZM10.26 487.51 L2.1 481.56 L10.26 487.51 ZM12.47 485.83 L4.35 479.91 L12.47
							 485.83 ZM14.7 484.2 L6.58 478.28 L14.7 484.2 ZM14.16 480.84 L8.53 476.74 L14.16 480.84 Z" class="st16"/>
				<path d="M8.1 488.98 L0 483.08M10.26 487.51 L2.1 481.56M12.47 485.83 L4.35 479.91M14.7 484.2 L6.58 478.28M14.16 480.84
							 L8.53 476.74" class="st20"/>
			</g>
			<g id="shape217-457" v:mID="217" v:groupContext="shape" transform="translate(6.78749,-3.50831)">
				<title>工作表.217</title>
				<path d="M24.59 476.17 L27.03 474.33 L23.63 471.85 L24.42 468.64 L15.31 461.98 L0.12 473.03 L2.62 474.88 L0 476.83
							 L2.54 478.65 L0.12 480.44 L11.86 488.98 L27.03 477.96 L24.59 476.17 Z" class="st21"/>
			</g>
			<g id="shape210-459" v:mID="210" v:groupContext="groupContent">
				<v:textBlock v:margins="rect(0,0,0,0)" v:tabSpace="42.5197"/>
				<v:textRect cx="20.3009" cy="496.178" width="23.68" height="14.4037"/>
				<g id="shadow210-460" v:groupContext="shadow" v:shadowOffsetX="0.345598" v:shadowOffsetY="-1.97279"
						v:shadowType="1" transform="matrix(1,0,0,1,0.345598,1.97279)" class="st13">
					<text x="9.96" y="499.78" class="st22" v:langID="2052"><v:paragraph v:horizAlign="1"/><v:tabList/>B/H</text>				</g>
				<text x="9.96" y="499.78" class="st23" v:langID="2052"><v:paragraph v:horizAlign="1"/><v:tabList/>B/H</text>			</g>
		</g>
		<g id="shape316-464" v:mID="316" v:groupContext="shape" v:layerMember="0" transform="translate(486.407,-349.43)">
			<title>动态连接线.316</title>
			<path d="M7.09 488.98 L7.09 529.98" class="st4"/>
		</g>
		<g id="group317-469" transform="translate(24.5724,-184.252)" v:mID="317" v:groupContext="group">
			<title>工作表.317</title>
			<g id="shape318-470" v:mID="318" v:groupContext="shape">
				<title>框.21</title>
				<desc>根据公式计算出 t 年5月至t+1 年4月 每个月的三因子</desc>
				<v:userDefs>
					<v:ud v:nameU="visVersion" v:val="VT0(15):26"/>
				</v:userDefs>
				<v:textBlock v:margins="rect(4,4,4,4)" v:tabSpace="42.5197"/>
				<v:textRect cx="130.181" cy="465.905" width="260.37" height="46.1433"/>
				<rect x="0" y="442.833" width="260.362" height="46.1433" class="st7"/>
				<text x="26.18" y="461.03" class="st8" v:langID="2052"><v:paragraph v:spLine="-1.5" v:horizAlign="1"/><v:tabList/>根据公式计算出<tspan
							class="st9"> </tspan><tspan class="st10">t</tspan><tspan class="st11"> </tspan>年5月至<tspan class="st10">t</tspan><tspan
							class="st10">+</tspan><tspan class="st10">1</tspan><tspan class="st9"> </tspan>年4月<v:newlineChar/><tspan
							x="84.5" dy="1.5em" class="st12">每个月的三因子</tspan></text>			</g>
		</g>
		<g id="shape319-481" v:mID="319" v:groupContext="shape" v:layerMember="0" transform="translate(486.407,-246.576)">
			<title>动态连接线.319</title>
			<path d="M7.09 488.98 L7.09 496.48" class="st4"/>
		</g>
		<g id="group320-486" transform="translate(363.313,-184.252)" v:mID="320" v:groupContext="group">
			<title>工作表.320</title>
			<g id="shape321-487" v:mID="321" v:groupContext="shape">
				<title>框.21</title>
				<desc>计算出 t 年5月至t+1 年4月 每个组合每个月的加权平均收益率</desc>
				<v:userDefs>
					<v:ud v:nameU="visVersion" v:val="VT0(15):26"/>
				</v:userDefs>
				<v:textBlock v:margins="rect(4,4,4,4)" v:tabSpace="42.5197"/>
				<v:textRect cx="130.181" cy="465.905" width="260.37" height="46.1433"/>
				<rect x="0" y="442.833" width="260.362" height="46.1433" class="st7"/>
				<text x="52.28" y="461.03" class="st8" v:langID="2052"><v:paragraph v:spLine="-1.5" v:horizAlign="1"/><v:tabList/>计算出<tspan
							class="st9"> </tspan><tspan class="st10">t</tspan><tspan class="st11"> </tspan>年5月至<tspan class="st10">t</tspan><tspan
							class="st10">+</tspan><tspan class="st10">1</tspan><tspan class="st9"> </tspan>年4月<v:newlineChar/><tspan
							x="32.3" dy="1.5em" class="st12">每个组合每个月的加权平均收益率</tspan></text>			</g>
		</g>
		<g id="shape322-498" v:mID="322" v:groupContext="shape" v:layerMember="0" transform="translate(147.667,-248.376)">
			<title>动态连接线.322</title>
			<path d="M7.09 488.98 L7.09 498.28" class="st4"/>
		</g>
		<g id="group323-503" transform="translate(363.313,-246.576)" v:mID="323" v:groupContext="group">
			<title>工作表.323</title>
			<g id="group281-504" v:mID="281" v:groupContext="group">
				<title>工作表.281</title>
				<g id="shape282-505" v:mID="282" v:groupContext="shape">
					<title>框.21</title>
					<v:userDefs>
						<v:ud v:nameU="visVersion" v:val="VT0(15):26"/>
					</v:userDefs>
					<path d="M0 488.98 L260.36 488.98 L260.36 435.81 L0 435.81 L0 488.98 Z" class="st6"/>
				</g>
			</g>
			<g id="group283-507" transform="translate(1.19904E-014,-19.1528)" v:mID="283" v:groupContext="group">
				<v:userDefs>
					<v:ud v:nameU="SkinColor" v:prompt="" v:val="VT5(#da8c36)"/>
					<v:ud v:nameU="visVersion" v:prompt="" v:val="VT0(15):26"/>
				</v:userDefs>
				<title>协议.283</title>
				<desc>组合1</desc>
				<g id="shape284-508" v:mID="284" v:groupContext="shape" transform="translate(8.52972,-3.50787)">
					<title>工作表.284</title>
					<g id="shadow284-509" v:groupContext="shadow" v:shadowOffsetX="0.3456" v:shadowOffsetY="-1.9728"
							v:shadowType="1" transform="matrix(1,0,0,1,0.3456,1.9728)" class="st13">
						<path d="M0 476.83 L3.18 478.65 L14.91 485.35 L33.96 474.33 L29.69 471.84 L30.69 468.64 L19.24 461.98 L0.15
									 473.03 L3.37 474.89 L0 476.83 ZM0.15 480.44 L14.91 488.98 L33.96 477.96 L30.9 476.17 L14.91
									 485.35 L3.19 478.66 L0.15 480.44 ZM3.19 478.66 L3.18 478.65 L3.19 478.66 Z" class="st14"/>
						<path d="M0 476.83 L3.18 478.65 L14.91 485.35 L33.96 474.33 L29.69 471.84 L30.69 468.64 L19.24 461.98 L0.15
									 473.03 L3.37 474.89 L0 476.83M0.15 480.44 L14.91 488.98 L33.96 477.96 L30.9 476.17 L14.91 485.35
									 L3.19 478.66 L0.15 480.44M3.19 478.66 L3.18 478.65" class="st15"/>
					</g>
					<path d="M0 476.83 L3.18 478.65 L14.91 485.35 L33.96 474.33 L29.69 471.84 L30.69 468.64 L19.24 461.98 L0.15 473.03
								 L3.37 474.89 L0 476.83 ZM0.15 480.44 L14.91 488.98 L33.96 477.96 L30.9 476.17 L14.91 485.35 L3.19
								 478.66 L0.15 480.44 ZM3.19 478.66 L3.18 478.65 L3.19 478.66 Z" class="st16"/>
					<path d="M0 476.83 L3.18 478.65 L14.91 485.35 L33.96 474.33 L29.69 471.84 L30.69 468.64 L19.24 461.98 L0.15 473.03
								 L3.37 474.89 L0 476.83M0.15 480.44 L14.91 488.98 L33.96 477.96 L30.9 476.17 L14.91 485.35 L3.19
								 478.66 L0.15 480.44M3.19 478.66 L3.18 478.65" class="st17"/>
				</g>
				<g id="shape285-516" v:mID="285" v:groupContext="shape" transform="translate(8.52972,-3.50831)">
					<title>工作表.285</title>
					<path d="M0.15 480.44 L3.2 478.65 L14.91 485.35 L30.9 476.17 L33.96 477.96 L14.91 488.98 L0.15 480.44 ZM0 476.83
								 L19.24 465.75 L33.96 474.33 L14.91 485.35 L0 476.83 Z" class="st18"/>
				</g>
				<g id="shape286-519" v:mID="286" v:groupContext="shape" transform="translate(8.67617,-10.9119)">
					<title>工作表.286</title>
					<path d="M30.54 476.04 L19.09 469.38 L0 480.43 L14.76 488.98 L29.09 480.69 L30.54 476.04 Z" class="st18"/>
				</g>
				<g id="shape287-522" v:mID="287" v:groupContext="shape" transform="translate(33.8369,-18.9113)">
					<title>工作表.287</title>
					<path d="M0.63 486.68 L3.81 488.6 L3.12 488.98 L0 487.15 L0.63 486.68 Z" class="st16"/>
					<path d="M0.63 486.68 L3.81 488.6 L3.12 488.98 L0 487.15" class="st17"/>
				</g>
				<g id="shape288-525" v:mID="288" v:groupContext="shape" transform="translate(34.4628,-19.1963)">
					<title>工作表.288</title>
					<path d="M3.31 488.98 L0 486.96 L4.75 484.33 L3.31 488.98 Z" class="st19"/>
				</g>
				<g id="shape289-528" v:mID="289" v:groupContext="shape" transform="translate(14.5215,-14.7157)">
					<title>工作表.289</title>
					<path d="M10.18 488.98 L0 483.08 L10.18 488.98 ZM12.9 487.51 L2.64 481.56 L12.9 487.51 ZM15.67 485.83 L5.47 479.91
								 L15.67 485.83 ZM18.48 484.2 L8.27 478.28 L18.48 484.2 ZM17.79 480.84 L10.72 476.74 L17.79 480.84
								 Z" class="st16"/>
					<path d="M10.18 488.98 L0 483.08M12.9 487.51 L2.64 481.56M15.67 485.83 L5.47 479.91M18.48 484.2 L8.27 478.28M17.79
								 480.84 L10.72 476.74" class="st20"/>
				</g>
				<g id="shape290-531" v:mID="290" v:groupContext="shape" transform="translate(8.52972,-3.50831)">
					<title>工作表.290</title>
					<path d="M30.9 476.17 L33.96 474.33 L29.7 471.85 L30.69 468.64 L19.24 461.98 L0.15 473.03 L3.29 474.88 L0 476.83
								 L3.2 478.65 L0.15 480.44 L14.91 488.98 L33.96 477.96 L30.9 476.17 Z" class="st21"/>
				</g>
				<g id="shape283-533" v:mID="283" v:groupContext="groupContent">
					<v:textBlock v:margins="rect(0,0,0,0)" v:tabSpace="42.5197"/>
					<v:textRect cx="25.5118" cy="496.906" width="33.1" height="15.8585"/>
					<g id="shadow283-534" v:groupContext="shadow" v:shadowOffsetX="0.345598" v:shadowOffsetY="-1.97279"
							v:shadowType="1" transform="matrix(1,0,0,1,0.345598,1.97279)" class="st13">
						<text x="10.46" y="500.87" class="st32" v:langID="2052"><v:paragraph v:horizAlign="1"/><v:tabList/>组合<tspan
									class="st33">1</tspan></text>					</g>
					<text x="10.46" y="500.87" class="st34" v:langID="2052"><v:paragraph v:horizAlign="1"/><v:tabList/>组合<tspan
								class="st33">1</tspan></text>				</g>
			</g>
			<g id="group291-540" transform="translate(54.4396,-19.8805)" v:mID="291" v:groupContext="group">
				<v:userDefs>
					<v:ud v:nameU="SkinColor" v:prompt="" v:val="VT5(#da8c36)"/>
					<v:ud v:nameU="visVersion" v:prompt="" v:val="VT0(15):26"/>
				</v:userDefs>
				<title>协议.291</title>
				<desc>组合2</desc>
				<g id="shape292-541" v:mID="292" v:groupContext="shape" transform="translate(8.52972,-3.50787)">
					<title>工作表.292</title>
					<g id="shadow292-542" v:groupContext="shadow" v:shadowOffsetX="0.3456" v:shadowOffsetY="-1.9728"
							v:shadowType="1" transform="matrix(1,0,0,1,0.3456,1.9728)" class="st13">
						<path d="M0 476.83 L3.18 478.65 L14.91 485.35 L33.96 474.33 L29.69 471.84 L30.69 468.64 L19.24 461.98 L0.15
									 473.03 L3.37 474.89 L0 476.83 ZM0.15 480.44 L14.91 488.98 L33.96 477.96 L30.9 476.17 L14.91
									 485.35 L3.19 478.66 L0.15 480.44 ZM3.19 478.66 L3.18 478.65 L3.19 478.66 Z" class="st14"/>
						<path d="M0 476.83 L3.18 478.65 L14.91 485.35 L33.96 474.33 L29.69 471.84 L30.69 468.64 L19.24 461.98 L0.15
									 473.03 L3.37 474.89 L0 476.83M0.15 480.44 L14.91 488.98 L33.96 477.96 L30.9 476.17 L14.91 485.35
									 L3.19 478.66 L0.15 480.44M3.19 478.66 L3.18 478.65" class="st15"/>
					</g>
					<path d="M0 476.83 L3.18 478.65 L14.91 485.35 L33.96 474.33 L29.69 471.84 L30.69 468.64 L19.24 461.98 L0.15 473.03
								 L3.37 474.89 L0 476.83 ZM0.15 480.44 L14.91 488.98 L33.96 477.96 L30.9 476.17 L14.91 485.35 L3.19
								 478.66 L0.15 480.44 ZM3.19 478.66 L3.18 478.65 L3.19 478.66 Z" class="st16"/>
					<path d="M0 476.83 L3.18 478.65 L14.91 485.35 L33.96 474.33 L29.69 471.84 L30.69 468.64 L19.24 461.98 L0.15 473.03
								 L3.37 474.89 L0 476.83M0.15 480.44 L14.91 488.98 L33.96 477.96 L30.9 476.17 L14.91 485.35 L3.19
								 478.66 L0.15 480.44M3.19 478.66 L3.18 478.65" class="st17"/>
				</g>
				<g id="shape293-549" v:mID="293" v:groupContext="shape" transform="translate(8.52972,-3.50831)">
					<title>工作表.293</title>
					<path d="M0.15 480.44 L3.2 478.65 L14.91 485.35 L30.9 476.17 L33.96 477.96 L14.91 488.98 L0.15 480.44 ZM0 476.83
								 L19.24 465.75 L33.96 474.33 L14.91 485.35 L0 476.83 Z" class="st18"/>
				</g>
				<g id="shape294-552" v:mID="294" v:groupContext="shape" transform="translate(8.67617,-10.9119)">
					<title>工作表.294</title>
					<path d="M30.54 476.04 L19.09 469.38 L0 480.43 L14.76 488.98 L29.09 480.69 L30.54 476.04 Z" class="st18"/>
				</g>
				<g id="shape295-555" v:mID="295" v:groupContext="shape" transform="translate(33.8369,-18.9113)">
					<title>工作表.295</title>
					<path d="M0.63 486.68 L3.81 488.6 L3.12 488.98 L0 487.15 L0.63 486.68 Z" class="st16"/>
					<path d="M0.63 486.68 L3.81 488.6 L3.12 488.98 L0 487.15" class="st17"/>
				</g>
				<g id="shape296-558" v:mID="296" v:groupContext="shape" transform="translate(34.4628,-19.1963)">
					<title>工作表.296</title>
					<path d="M3.31 488.98 L0 486.96 L4.75 484.33 L3.31 488.98 Z" class="st19"/>
				</g>
				<g id="shape297-561" v:mID="297" v:groupContext="shape" transform="translate(14.5215,-14.7157)">
					<title>工作表.297</title>
					<path d="M10.18 488.98 L0 483.08 L10.18 488.98 ZM12.9 487.51 L2.64 481.56 L12.9 487.51 ZM15.67 485.83 L5.47 479.91
								 L15.67 485.83 ZM18.48 484.2 L8.27 478.28 L18.48 484.2 ZM17.79 480.84 L10.72 476.74 L17.79 480.84
								 Z" class="st16"/>
					<path d="M10.18 488.98 L0 483.08M12.9 487.51 L2.64 481.56M15.67 485.83 L5.47 479.91M18.48 484.2 L8.27 478.28M17.79
								 480.84 L10.72 476.74" class="st20"/>
				</g>
				<g id="shape298-564" v:mID="298" v:groupContext="shape" transform="translate(8.52972,-3.50831)">
					<title>工作表.298</title>
					<path d="M30.9 476.17 L33.96 474.33 L29.7 471.85 L30.69 468.64 L19.24 461.98 L0.15 473.03 L3.29 474.88 L0 476.83
								 L3.2 478.65 L0.15 480.44 L14.91 488.98 L33.96 477.96 L30.9 476.17 Z" class="st21"/>
				</g>
				<g id="shape291-566" v:mID="291" v:groupContext="groupContent">
					<v:textBlock v:margins="rect(0,0,0,0)" v:tabSpace="42.5197"/>
					<v:textRect cx="25.5118" cy="496.906" width="33.1" height="15.8585"/>
					<g id="shadow291-567" v:groupContext="shadow" v:shadowOffsetX="0.345598" v:shadowOffsetY="-1.97279"
							v:shadowType="1" transform="matrix(1,0,0,1,0.345598,1.97279)" class="st13">
						<text x="10.46" y="500.87" class="st32" v:langID="2052"><v:paragraph v:horizAlign="1"/><v:tabList/>组合<tspan
									class="st33">2</tspan></text>					</g>
					<text x="10.46" y="500.87" class="st34" v:langID="2052"><v:paragraph v:horizAlign="1"/><v:tabList/>组合<tspan
								class="st33">2</tspan></text>				</g>
			</g>
			<g id="group299-573" transform="translate(108.879,-19.8805)" v:mID="299" v:groupContext="group">
				<v:userDefs>
					<v:ud v:nameU="SkinColor" v:prompt="" v:val="VT5(#da8c36)"/>
					<v:ud v:nameU="visVersion" v:prompt="" v:val="VT0(15):26"/>
				</v:userDefs>
				<title>协议.299</title>
				<desc>组合3</desc>
				<g id="shape300-574" v:mID="300" v:groupContext="shape" transform="translate(8.52972,-3.50787)">
					<title>工作表.300</title>
					<g id="shadow300-575" v:groupContext="shadow" v:shadowOffsetX="0.3456" v:shadowOffsetY="-1.9728"
							v:shadowType="1" transform="matrix(1,0,0,1,0.3456,1.9728)" class="st13">
						<path d="M0 476.83 L3.18 478.65 L14.91 485.35 L33.96 474.33 L29.69 471.84 L30.69 468.64 L19.24 461.98 L0.15
									 473.03 L3.37 474.89 L0 476.83 ZM0.15 480.44 L14.91 488.98 L33.96 477.96 L30.9 476.17 L14.91
									 485.35 L3.19 478.66 L0.15 480.44 ZM3.19 478.66 L3.18 478.65 L3.19 478.66 Z" class="st14"/>
						<path d="M0 476.83 L3.18 478.65 L14.91 485.35 L33.96 474.33 L29.69 471.84 L30.69 468.64 L19.24 461.98 L0.15
									 473.03 L3.37 474.89 L0 476.83M0.15 480.44 L14.91 488.98 L33.96 477.96 L30.9 476.17 L14.91 485.35
									 L3.19 478.66 L0.15 480.44M3.19 478.66 L3.18 478.65" class="st15"/>
					</g>
					<path d="M0 476.83 L3.18 478.65 L14.91 485.35 L33.96 474.33 L29.69 471.84 L30.69 468.64 L19.24 461.98 L0.15 473.03
								 L3.37 474.89 L0 476.83 ZM0.15 480.44 L14.91 488.98 L33.96 477.96 L30.9 476.17 L14.91 485.35 L3.19
								 478.66 L0.15 480.44 ZM3.19 478.66 L3.18 478.65 L3.19 478.66 Z" class="st16"/>
					<path d="M0 476.83 L3.18 478.65 L14.91 485.35 L33.96 474.33 L29.69 471.84 L30.69 468.64 L19.24 461.98 L0.15 473.03
								 L3.37 474.89 L0 476.83M0.15 480.44 L14.91 488.98 L33.96 477.96 L30.9 476.17 L14.91 485.35 L3.19
								 478.66 L0.15 480.44M3.19 478.66 L3.18 478.65" class="st17"/>
				</g>
				<g id="shape301-582" v:mID="301" v:groupContext="shape" transform="translate(8.52972,-3.50831)">
					<title>工作表.301</title>
					<path d="M0.15 480.44 L3.2 478.65 L14.91 485.35 L30.9 476.17 L33.96 477.96 L14.91 488.98 L0.15 480.44 ZM0 476.83
								 L19.24 465.75 L33.96 474.33 L14.91 485.35 L0 476.83 Z" class="st18"/>
				</g>
				<g id="shape302-585" v:mID="302" v:groupContext="shape" transform="translate(8.67617,-10.9119)">
					<title>工作表.302</title>
					<path d="M30.54 476.04 L19.09 469.38 L0 480.43 L14.76 488.98 L29.09 480.69 L30.54 476.04 Z" class="st18"/>
				</g>
				<g id="shape303-588" v:mID="303" v:groupContext="shape" transform="translate(33.8369,-18.9113)">
					<title>工作表.303</title>
					<path d="M0.63 486.68 L3.81 488.6 L3.12 488.98 L0 487.15 L0.63 486.68 Z" class="st16"/>
					<path d="M0.63 486.68 L3.81 488.6 L3.12 488.98 L0 487.15" class="st17"/>
				</g>
				<g id="shape304-591" v:mID="304" v:groupContext="shape" transform="translate(34.4628,-19.1963)">
					<title>工作表.304</title>
					<path d="M3.31 488.98 L0 486.96 L4.75 484.33 L3.31 488.98 Z" class="st19"/>
				</g>
				<g id="shape305-594" v:mID="305" v:groupContext="shape" transform="translate(14.5215,-14.7157)">
					<title>工作表.305</title>
					<path d="M10.18 488.98 L0 483.08 L10.18 488.98 ZM12.9 487.51 L2.64 481.56 L12.9 487.51 ZM15.67 485.83 L5.47 479.91
								 L15.67 485.83 ZM18.48 484.2 L8.27 478.28 L18.48 484.2 ZM17.79 480.84 L10.72 476.74 L17.79 480.84
								 Z" class="st16"/>
					<path d="M10.18 488.98 L0 483.08M12.9 487.51 L2.64 481.56M15.67 485.83 L5.47 479.91M18.48 484.2 L8.27 478.28M17.79
								 480.84 L10.72 476.74" class="st20"/>
				</g>
				<g id="shape306-597" v:mID="306" v:groupContext="shape" transform="translate(8.52972,-3.50831)">
					<title>工作表.306</title>
					<path d="M30.9 476.17 L33.96 474.33 L29.7 471.85 L30.69 468.64 L19.24 461.98 L0.15 473.03 L3.29 474.88 L0 476.83
								 L3.2 478.65 L0.15 480.44 L14.91 488.98 L33.96 477.96 L30.9 476.17 Z" class="st21"/>
				</g>
				<g id="shape299-599" v:mID="299" v:groupContext="groupContent">
					<v:textBlock v:margins="rect(0,0,0,0)" v:tabSpace="42.5197"/>
					<v:textRect cx="25.5118" cy="496.906" width="33.1" height="15.8585"/>
					<g id="shadow299-600" v:groupContext="shadow" v:shadowOffsetX="0.345598" v:shadowOffsetY="-1.97279"
							v:shadowType="1" transform="matrix(1,0,0,1,0.345598,1.97279)" class="st13">
						<text x="10.46" y="500.87" class="st32" v:langID="2052"><v:paragraph v:horizAlign="1"/><v:tabList/>组合<tspan
									class="st33">3</tspan></text>					</g>
					<text x="10.46" y="500.87" class="st34" v:langID="2052"><v:paragraph v:horizAlign="1"/><v:tabList/>组合<tspan
								class="st33">3</tspan></text>				</g>
			</g>
			<g id="group307-606" transform="translate(209.339,-19.2274)" v:mID="307" v:groupContext="group">
				<v:userDefs>
					<v:ud v:nameU="SkinColor" v:prompt="" v:val="VT5(#da8c36)"/>
					<v:ud v:nameU="visVersion" v:prompt="" v:val="VT0(15):26"/>
				</v:userDefs>
				<title>协议.307</title>
				<desc>组合25</desc>
				<g id="shape308-607" v:mID="308" v:groupContext="shape" transform="translate(8.52972,-3.50787)">
					<title>工作表.308</title>
					<g id="shadow308-608" v:groupContext="shadow" v:shadowOffsetX="0.3456" v:shadowOffsetY="-1.9728"
							v:shadowType="1" transform="matrix(1,0,0,1,0.3456,1.9728)" class="st13">
						<path d="M0 476.83 L3.18 478.65 L14.91 485.35 L33.96 474.33 L29.69 471.84 L30.69 468.64 L19.24 461.98 L0.15
									 473.03 L3.37 474.89 L0 476.83 ZM0.15 480.44 L14.91 488.98 L33.96 477.96 L30.9 476.17 L14.91
									 485.35 L3.19 478.66 L0.15 480.44 ZM3.19 478.66 L3.18 478.65 L3.19 478.66 Z" class="st14"/>
						<path d="M0 476.83 L3.18 478.65 L14.91 485.35 L33.96 474.33 L29.69 471.84 L30.69 468.64 L19.24 461.98 L0.15
									 473.03 L3.37 474.89 L0 476.83M0.15 480.44 L14.91 488.98 L33.96 477.96 L30.9 476.17 L14.91 485.35
									 L3.19 478.66 L0.15 480.44M3.19 478.66 L3.18 478.65" class="st15"/>
					</g>
					<path d="M0 476.83 L3.18 478.65 L14.91 485.35 L33.96 474.33 L29.69 471.84 L30.69 468.64 L19.24 461.98 L0.15 473.03
								 L3.37 474.89 L0 476.83 ZM0.15 480.44 L14.91 488.98 L33.96 477.96 L30.9 476.17 L14.91 485.35 L3.19
								 478.66 L0.15 480.44 ZM3.19 478.66 L3.18 478.65 L3.19 478.66 Z" class="st16"/>
					<path d="M0 476.83 L3.18 478.65 L14.91 485.35 L33.96 474.33 L29.69 471.84 L30.69 468.64 L19.24 461.98 L0.15 473.03
								 L3.37 474.89 L0 476.83M0.15 480.44 L14.91 488.98 L33.96 477.96 L30.9 476.17 L14.91 485.35 L3.19
								 478.66 L0.15 480.44M3.19 478.66 L3.18 478.65" class="st17"/>
				</g>
				<g id="shape309-615" v:mID="309" v:groupContext="shape" transform="translate(8.52972,-3.50831)">
					<title>工作表.309</title>
					<path d="M0.15 480.44 L3.2 478.65 L14.91 485.35 L30.9 476.17 L33.96 477.96 L14.91 488.98 L0.15 480.44 ZM0 476.83
								 L19.24 465.75 L33.96 474.33 L14.91 485.35 L0 476.83 Z" class="st18"/>
				</g>
				<g id="shape310-618" v:mID="310" v:groupContext="shape" transform="translate(8.67617,-10.9119)">
					<title>工作表.310</title>
					<path d="M30.54 476.04 L19.09 469.38 L0 480.43 L14.76 488.98 L29.09 480.69 L30.54 476.04 Z" class="st18"/>
				</g>
				<g id="shape311-621" v:mID="311" v:groupContext="shape" transform="translate(33.8369,-18.9113)">
					<title>工作表.311</title>
					<path d="M0.63 486.68 L3.81 488.6 L3.12 488.98 L0 487.15 L0.63 486.68 Z" class="st16"/>
					<path d="M0.63 486.68 L3.81 488.6 L3.12 488.98 L0 487.15" class="st17"/>
				</g>
				<g id="shape312-624" v:mID="312" v:groupContext="shape" transform="translate(34.4628,-19.1963)">
					<title>工作表.312</title>
					<path d="M3.31 488.98 L0 486.96 L4.75 484.33 L3.31 488.98 Z" class="st19"/>
				</g>
				<g id="shape313-627" v:mID="313" v:groupContext="shape" transform="translate(14.5215,-14.7157)">
					<title>工作表.313</title>
					<path d="M10.18 488.98 L0 483.08 L10.18 488.98 ZM12.9 487.51 L2.64 481.56 L12.9 487.51 ZM15.67 485.83 L5.47 479.91
								 L15.67 485.83 ZM18.48 484.2 L8.27 478.28 L18.48 484.2 ZM17.79 480.84 L10.72 476.74 L17.79 480.84
								 Z" class="st16"/>
					<path d="M10.18 488.98 L0 483.08M12.9 487.51 L2.64 481.56M15.67 485.83 L5.47 479.91M18.48 484.2 L8.27 478.28M17.79
								 480.84 L10.72 476.74" class="st20"/>
				</g>
				<g id="shape314-630" v:mID="314" v:groupContext="shape" transform="translate(8.52972,-3.50831)">
					<title>工作表.314</title>
					<path d="M30.9 476.17 L33.96 474.33 L29.7 471.85 L30.69 468.64 L19.24 461.98 L0.15 473.03 L3.29 474.88 L0 476.83
								 L3.2 478.65 L0.15 480.44 L14.91 488.98 L33.96 477.96 L30.9 476.17 Z" class="st21"/>
				</g>
				<g id="shape307-632" v:mID="307" v:groupContext="groupContent">
					<v:textBlock v:margins="rect(0,0,0,0)" v:tabSpace="42.5197"/>
					<v:textRect cx="25.5118" cy="496.906" width="39.1" height="15.8585"/>
					<g id="shadow307-633" v:groupContext="shadow" v:shadowOffsetX="0.345598" v:shadowOffsetY="-1.97279"
							v:shadowType="1" transform="matrix(1,0,0,1,0.345598,1.97279)" class="st13">
						<text x="7.46" y="500.87" class="st32" v:langID="2052"><v:paragraph v:horizAlign="1"/><v:tabList/>组合<tspan
									class="st33">25</tspan></text>					</g>
					<text x="7.46" y="500.87" class="st34" v:langID="2052"><v:paragraph v:horizAlign="1"/><v:tabList/>组合<tspan
								class="st33">25</tspan></text>				</g>
			</g>
			<g id="shape315-639" v:mID="315" v:groupContext="shape" transform="translate(152.518,-19.8805)">
				<title>框.94</title>
				<desc>···</desc>
				<v:userDefs>
					<v:ud v:nameU="visVersion" v:val="VT0(15):26"/>
				</v:userDefs>
				<v:textBlock v:margins="rect(4,4,4,4)" v:tabSpace="42.5197"/>
				<v:textRect cx="30.6515" cy="479.992" width="61.31" height="17.9693"/>
				<rect x="0" y="471.007" width="61.3029" height="17.9693" class="st28"/>
				<text x="12.58" y="483.59" class="st34" v:langID="2052"><v:paragraph v:horizAlign="1"/><v:tabList/>···</text>			</g>
		</g>
		<g id="shape330-642" v:mID="330" v:groupContext="shape" v:layerMember="0" transform="translate(154.754,-184.252)">
			<title>动态连接线.330</title>
			<path d="M0 488.98 L0 505.92 L171.23 505.92 L171.23 515.28" class="st4"/>
		</g>
		<g id="shape331-647" v:mID="331" v:groupContext="shape" v:layerMember="0" transform="translate(493.494,-184.252)">
			<title>动态连接线.331</title>
			<path d="M0 488.98 L0 505.98 L-167.51 505.98 L-167.51 515.28" class="st4"/>
		</g>
	</g>
</svg>
